<?xml version="1.0" encoding="utf-8"?>
<!-- Generator: Adobe Illustrator 18.1.1, SVG Export Plug-In . SVG Version: 6.00 Build 0)  -->
<svg version="1.1" id="Layer_1" xmlns="http://www.w3.org/2000/svg" xmlns:xlink="http://www.w3.org/1999/xlink" x="0px" y="0px"
	 viewBox="0 0 83 79.4" enable-background="new 0 0 83 79.4" xml:space="preserve">
<circle fill="#2196F3" cx="44.7" cy="42.2" r="10.6"/>
<path fill="#2196F3" d="M68,9.7c-19.1,3.8-38.2,7.6-57.3,11.4C2.9,22.7-0.4,32.2,4.9,38.2C14.5,49.1,24,60,33.6,70.9
	c4.5,5.1,11.3,7.4,18,6.1c6.7-1.3,12.1-6.1,14.3-12.5c4.7-13.7,9.3-27.5,14-41.2C82.5,15.7,75.9,8.1,68,9.7z M62.6,48.3
	c-3.4,9.9-14.1,15.2-24,11.9c-9.9-3.4-15.2-14.1-11.9-24c3.4-9.9,14.1-15.2,24-11.9S66,38.4,62.6,48.3z M71.9,23.7
	c-2.1,1-4.6,0.2-5.6-1.9c-1-2.1-0.2-4.6,1.9-5.6s4.6-0.2,5.6,1.9C74.8,20.2,74,22.7,71.9,23.7z"/>
</svg>
