<?xml version="1.0" encoding="utf-8"?>
<!-- Generator: Adobe Illustrator 18.1.1, SVG Export Plug-In . SVG Version: 6.00 Build 0)  -->
<svg version="1.1" id="Layer_1" xmlns="http://www.w3.org/2000/svg" xmlns:xlink="http://www.w3.org/1999/xlink" x="0px" y="0px"
	 viewBox="0 0 331 251" enable-background="new 0 0 331 251" xml:space="preserve">
<g>
	<path fill="none" stroke="#000000" stroke-width="4" stroke-miterlimit="10" d="M174.5,103.7c-7.3,4.8-14.2,9.4-21.2,13.9
		c-1.5,1-3.5,1.7-5.3,1.7c-5.1-0.1-8.2-5.8-5.5-10.2c0.9-1.5,2.3-2.8,3.8-3.9c10.5-7.5,21-15,31.5-22.5c5.2-3.7,11-5.5,17.3-5.5
		c3.8,0,7.7,0.2,11.5,0.2c3.6,0,6.9,1.2,9.8,3.3c12.1,8.6,24.1,17.2,36.2,25.9c2.3,1.7,3.9,3.9,3.8,6.9c-0.1,4.4-4.5,7.3-9,5.8
		c-1.6-0.5-3-1.4-4.4-2.3c-8.7-5.7-17.3-11.5-26-17.3c-0.8-0.5-1.6-1.1-2.8-1.8c1.6,4.9,3.1,9.3,4.6,13.8
		c3.6,11.1,5.7,22.4,5.4,34.1c-0.1,3.6,0.6,7.3,1.6,10.8c1.4,5,4.4,6.9,9.6,6.9c7.2,0,14.3-0.1,21.5,0c6.2,0.1,9.8,6.5,6.5,11.7
		c-1,1.5-3.2,3.2-4.9,3.2c-10.8,0.3-21.7,0.4-32.5-0.1c-6.1-0.3-10.4-4.4-13.9-9.3c-4.2-5.9-6.6-12.6-8.4-20.3
		c-0.6,1.1-0.9,1.8-1.2,2.4c-8.5,20.2-17,40.3-25.5,60.5c-0.5,1.3-1.1,2.6-1.9,3.8c-2.5,3.7-7.1,4.9-11,3c-3.5-1.8-4.8-5.5-3.2-9.9
		c6.7-17.9,13.2-35.9,20.3-53.7c3.5-8.7,4-17.2,1.9-26.1C181,120.2,178.2,111.9,174.5,103.7z"/>
	<path fill="none" stroke="#000000" stroke-width="4" stroke-miterlimit="10" d="M107.3,158.7c-0.5,1.2-0.9,2.1-1.2,3.1
		c-4.5,12.1-9,24.1-13.6,36.2c-2.1,5.6-6.9,7.9-11.8,5.9c-3.2-1.3-5-4.4-4.3-7.8c0.3-1.5,0.9-3,1.4-4.5c4.6-12.4,9.5-24.7,13.8-37.2
		c3.8-10.7,2.2-21.2-2.5-31.3c-0.5-1-1.2-2-2-2.8c-2.8-3-4.5-3-7.4-0.2c-5,5-10,10-15,15c-1.1,1-2.3,2-3.6,2.6
		c-2.7,1.2-5.4,0.8-7.7-1.1c-2.2-1.8-2.3-4.3-1.4-6.6c0.9-2.3,2.1-4.6,3.8-6.3c7.5-7.7,15.2-15.2,22.8-22.8c2.4-2.4,5.4-3.5,8.8-3.5
		c4.2,0.1,8.5,0.2,12.7,0c4.7-0.3,8.2,1.7,11.1,5.1c5.3,6.3,8.2,13.7,9.7,21.6c1,5.2,1.1,10.6,1.6,15.9c0.3,2.9,0.4,5.8,1,8.7
		c0.8,3.8,2.1,4.6,5.9,4.6c7.8,0,15.7-0.1,23.5,0c5.7,0.1,9.1,5.1,7.1,10.4c-1.1,2.9-3.2,4.6-6.2,4.6c-11,0.1-22,0.3-33-0.1
		c-5.1-0.1-8.9-3.4-11.9-7.4C108.4,160.3,107.9,159.6,107.3,158.7z"/>
	<path fill="none" stroke="#000000" stroke-width="4" stroke-miterlimit="10" d="M81.9,70.6C82,60.8,90,52.9,99.9,53
		c9.8,0.1,17.6,8.1,17.6,18c-0.1,9.7-8.1,17.6-17.8,17.5C89.8,88.5,81.9,80.5,81.9,70.6z"/>
	<path fill="none" stroke="#000000" stroke-width="4" stroke-miterlimit="10" d="M180.6,72.2C170.6,72,162.9,64,163.1,54
		c0.2-9.7,8.4-17.5,18.3-17.3c9.9,0.3,17.4,8.4,17.2,18.6C198.3,64.6,190.1,72.4,180.6,72.2z"/>
</g>
</svg>
