<?xml version="1.0" encoding="utf-8"?>
<!-- Generator: Adobe Illustrator 18.1.1, SVG Export Plug-In . SVG Version: 6.00 Build 0)  -->
<svg version="1.1" id="Layer_1" xmlns="http://www.w3.org/2000/svg" xmlns:xlink="http://www.w3.org/1999/xlink" x="0px" y="0px"
	 viewBox="0 0 350 264.5" enable-background="new 0 0 350 264.5" xml:space="preserve">
<path fill="none" stroke="#2196F3" stroke-width="3" stroke-linejoin="round" stroke-miterlimit="10" d="M199.1,78.6
	c20.7-6.7,40.5-6.4,59,6.9c1.2-3.1,2.7-6.5,3.9-9.9c3.7-10.1,7.4-20.2,11.2-30.2c0.5-1.2,1.6-2.2,2.5-3.3c2-2.4,3.9-4.7,6-7
	c2.2-2.4,5.2-3,8.1-2.1c6.8,2.1,13.6,4.2,20,7.1c6.3,2.9,12.4,6.5,18.3,10.3c4.9,3.2,9.5,6.9,14,10.6c2.3,1.9,3.3,4.8,3,7.9
	c-1.2,10.1-3.5,19.9-7.6,29.2c-4.9,11.3-12.3,21-20.3,30.2c-3.8,4.4-8.1,8.5-12.6,12.1c-4.8,3.9-10.7,5.6-16.9,6.4
	c-6,0.8-11.9,0.4-17.9-0.9c-1-0.2-2.5,0.3-3.4,1c-6.8,5.3-14.6,8.1-22.9,9.9c-8.6,1.9-17.3,2-25.9,1.3c-10.8-0.8-21.3-3.4-30.8-9
	c-6.1-3.6-11.6-8.1-15.1-14.5c-2.4-4.2-2.3-8.8-1.4-13.3c0.4-2.1-0.1-3-2-3.6c-7.6-2.3-14.3-6.4-20.3-11.6c-5.7-5-10.2-11.1-14-17.7
	c-5.3-9.4-9.9-19.1-13.1-29.4c-2.3-7.5-4.2-15-5-22.8c-0.4-4.3-1.2-8.5-1.3-12.8c-0.1-3.7,2.3-6.2,5.2-8.3c1.9-1.4,3.3-3.5,5.3-4.7
	c2.5-1.5,5.1-3,7.9-3.7C139,5.8,145,4.7,150.9,4c8.8-1,17.5,0.3,26.1,2.2c3.4,0.8,5.7,3.4,6.5,6.9c3.4,14.4,6.9,28.8,10.4,43.2
	C195.7,63.8,197.4,71.3,199.1,78.6z"/>
<path fill="none" stroke="#2196F3" stroke-width="3" stroke-linejoin="round" stroke-miterlimit="10" d="M193.8,175.4
	c3.4-3.4,6.4-3.4,10.7,0.1c3.3-2.9,7-3.2,10.8,0.4c3.1-2.9,6.2-3.6,10.5,0.5c4-3.4,6.9-3.3,10.5,0.5c2.8-2.9,6.9-3.3,9.9-0.5
	c0.3,0.3,1.2,0.3,1.7,0.1c4.1-2.1,6.1-1.9,8.8,0.4c2.7-0.5,5-1.6,7.1-1.1c2,0.4,3.8,2.2,5.4,3.7c2.3,2.3,4.7,4.7,6.2,7.4
	c1.6,2.9,2.8,6.4,3,9.7c0.6,7.7,0.6,15.5-2.6,22.9c-0.5,1.2-1.4,2.2-2.2,3.2c-1.7,2-3.6,3.9-5.3,5.9c-2.5,2.8-3.9,2.8-7.1,0
	c-1.9,1.3-2.7,4.6-5.7,3.6c-2-0.7-3.7-2.2-5.5-3.3c-2.3,4.7-7.3,4.7-10.1-1.3c-1.5,2.5-3.3,5-6.4,3.9c-1.8-0.7-3-2.6-4.6-4
	c-1.1,1.2-1.4,4-5,3.9c-3.7-0.1-3.6-3.1-5.3-4.7c-4.6,6.4-7,6.2-10.7-0.9c-1.2,2.6-2.3,5.4-5.9,4.9c-3.3-0.5-3.5-3.4-4.7-5.7
	c-1.4,2.2-1.9,5.7-5.3,5.6c-3.5-0.1-4.3-3.2-5.2-6.1c-2.2,1.8-1.8,6-5.8,5.7c-3.8-0.3-3.9-3.7-5.2-6.1c-1.8,2.1-1.9,6-6,5.6
	c-4.2-0.3-3.3-4.5-5-6.6c-0.7,1.4-1.2,2.9-2.1,4.1c-0.8,1-1.9,2.1-3.1,2.3c-1.6,0.2-3.3-0.5-4-2.4c-0.5-1.4-1.1-2.8-1.7-4.5
	c-0.9,1.7-1.6,3-2.3,4.4c-0.7,1.6-1.9,2.8-3.6,2.2c-1.2-0.4-2.5-1.5-3.2-2.5c-0.8-1.2-1.1-2.8-1.8-4.7c-0.9,1.8-1.7,3.1-2.3,4.5
	c-0.8,1.8-2.3,3-4.1,2.2c-1.2-0.5-2.2-1.9-3-3.1c-0.7-1.1-1-2.5-1.6-4.2c-1.1,2.2-1.9,3.8-2.8,5.5c-1.2,2.3-4.1,2.5-5.5,0.2
	c-1.1-1.8-1.8-3.8-2.9-6.1c-1.2,2.2-2.1,4.1-3.2,5.9c-1.3,2-4,2-5.1-0.1c-1-1.9-1.8-3.9-2.8-6.3c-1,2-1.7,3.8-2.8,5.3
	c-0.7,0.9-2.1,1.5-3.2,1.9c-1.5,0.5-2.2-0.7-2.7-1.9c-0.7-1.8-1.5-3.5-2.5-5.8c-1,1.9-1.7,3.7-2.8,5.2c-0.7,1-1.8,1.9-2.9,2.2
	c-2,0.5-2.7-1.2-3.4-2.7c-0.6-1.6-1.3-3.1-2.1-5c-1.2,2.1-2.2,3.9-3.1,5.7c-0.7,1.3-1.5,2.4-3,1.9c-1-0.4-2-1.3-2.6-2.2
	c-1-1.6-1.6-3.5-2.6-5.9c-1.3,2.4-2.1,4.3-3.2,6c-0.5,0.8-1.7,1.6-2.6,1.6c-0.9,0-2.1-0.8-2.5-1.6c-1.1-2-1.9-4.1-2.8-6.2
	c-0.3,0-0.6,0-0.8-0.1c-0.5,2.6-1.4,5.1-1.4,7.7c0,3.3-0.7,6.3-2.2,9.2c-3.1,5.9-6,11.8-8.9,17.8c-0.8,1.7-1.9,2.4-3.8,2.3
	c-8.5-0.3-17.1-0.4-25.6-0.6c-2.1-0.1-4.3-0.2-6.4-0.5c-0.8-0.1-1.6-0.8-2.1-1.4c-4.8-7.6-7.8-15.7-8.1-24.8
	c-0.3-10.8-1.2-21.6-0.8-32.3c0.5-13.7,1.6-27.3,4.8-40.7c1.8-7.5,5.4-13.7,11-18.7c1-0.9,3-0.8,4.6-0.9c1.1-0.1,2.3,0.4,3.4,0.4
	c8.9,0.4,17.9,0.6,26.8,1.1c0.8,0,1.9,1.1,2.1,1.9c2.5,8.9,7.5,28.2,8.7,28.2c3.2,0.1,5,2.2,6.1,5.1c3.6-6.5,8.9-5.4,11.4,0.2
	c1.5-1.8,2.3-4.4,5.3-4.2c2.9,0.1,4.6,1.7,5.5,3.7c2-1.1,4-3.1,6-3.1c2,0,3.9,2,6,3.2c5.1-4.9,6.6-3.6,10.8,0.9
	c4.8-5.3,7.7-4,11.1,0.5c3.3-4.6,7.4-4.7,11,0.4c3.4-4.5,6-4.5,11,0.1c4.4-4,7.8-3.9,10.8,0.4c3.1-3.9,7.8-3.8,10.5-0.3
	c2.1-0.7,4-1.9,5.9-1.9c1.8,0,3.6,1.4,5.6,2.3C186,171.7,190.2,171.3,193.8,175.4z"/>
<line fill="none" stroke="#2196F3" stroke-width="3" stroke-linejoin="round" stroke-miterlimit="10" x1="168.3" y1="118" x2="199.1" y2="78.6"/>
<ellipse fill="none" stroke="#2196F3" stroke-width="3" stroke-linejoin="round" stroke-miterlimit="10" cx="224.2" cy="93.1" rx="23.8" ry="14.1"/>
<path fill="none" stroke="#2196F3" stroke-width="3" stroke-linejoin="round" stroke-miterlimit="10" d="M114.7,21.3
	c0,0,21.9-13,53.6-2.3C176.7,12.3,181,8.7,181,8.7"/>
<path fill="none" stroke="#2196F3" stroke-width="3" stroke-linejoin="round" stroke-miterlimit="10" d="M168.3,19l18.6,75.2
	c0,0-3.2,15.5,25.8,21.8c25.7,3.7,37.3-9,37.3-9"/>
<path fill="none" stroke="#2196F3" stroke-width="3" stroke-linejoin="round" stroke-miterlimit="10" d="M273.2,45.4
	c0,0,28.8-1.8,59.8,29.9c-6.3,53-23.4,76.6-66.5,71.8L250,107l8.1-21.4"/>
<line fill="none" stroke="#2196F3" stroke-width="3" stroke-linejoin="round" stroke-miterlimit="10" x1="333" y1="75.3" x2="344" y2="64.7"/>
<line fill="none" stroke="#2196F3" stroke-width="3" stroke-linejoin="round" stroke-miterlimit="10" x1="63.3" y1="163.7" x2="63.3" y2="223.5"/>
<polyline fill="none" stroke="#2196F3" stroke-width="3" stroke-linejoin="round" stroke-miterlimit="10" points="21.9,135.9 
	30.3,163.7 30.3,227.3 15.6,254.5 "/>
<line fill="none" stroke="#2196F3" stroke-width="3" stroke-linejoin="round" stroke-miterlimit="10" x1="30.3" y1="163.7" x2="64.5" y2="163.7"/>
<line fill="none" stroke="#2196F3" stroke-width="3" stroke-linejoin="round" stroke-miterlimit="10" x1="30.3" y1="227.3" x2="62.4" y2="227.3"/>
<path fill="none" stroke="#2196F3" stroke-width="3" stroke-linejoin="round" stroke-miterlimit="10" d="M72.3,172.2
	c5.4,15.1,3.8,46.6,3.8,46.6"/>
<path fill="none" stroke="#2196F3" stroke-width="3" stroke-linejoin="round" stroke-miterlimit="10" d="M84,172.3
	c5.4,15.1,2.9,48,2.9,48"/>
<path fill="none" stroke="#2196F3" stroke-width="3" stroke-linejoin="round" stroke-miterlimit="10" d="M95,172.3
	c5.4,15.1,3.3,48,3.3,48"/>
<path fill="none" stroke="#2196F3" stroke-width="3" stroke-linejoin="round" stroke-miterlimit="10" d="M106.3,172.3
	c5.4,15.1,3.4,48,3.4,48"/>
<path fill="none" stroke="#2196F3" stroke-width="3" stroke-linejoin="round" stroke-miterlimit="10" d="M117.3,172.9
	c5.4,15.1,3.6,47.8,3.6,47.8"/>
<path fill="none" stroke="#2196F3" stroke-width="3" stroke-linejoin="round" stroke-miterlimit="10" d="M128.3,173.4
	c5.4,15.1,3.7,47.7,3.7,47.7"/>
<path fill="none" stroke="#2196F3" stroke-width="3" stroke-linejoin="round" stroke-miterlimit="10" d="M139.3,173.8
	c5.4,15.1,3.7,47.9,3.7,47.9"/>
<path fill="none" stroke="#2196F3" stroke-width="3" stroke-linejoin="round" stroke-miterlimit="10" d="M150.3,173.9
	c5.4,15.1,3.6,48.5,3.6,48.5"/>
<path fill="none" stroke="#2196F3" stroke-width="3" stroke-linejoin="round" stroke-miterlimit="10" d="M161.3,174.3
	c5.4,15.1,3.5,48.6,3.5,48.6"/>
<path fill="none" stroke="#2196F3" stroke-width="3" stroke-linejoin="round" stroke-miterlimit="10" d="M183.2,174.5
	c8.1,19.4,3.5,50.9,3.5,50.9"/>
<path fill="none" stroke="#2196F3" stroke-width="3" stroke-linejoin="round" stroke-miterlimit="10" d="M171.7,174.1
	c8.1,19.4,4,50.8,4,50.8"/>
<path fill="none" stroke="#2196F3" stroke-width="3" stroke-linejoin="round" stroke-miterlimit="10" d="M194.2,175.5
	c8.1,19.4,2.7,49.8,2.7,49.8"/>
<path fill="none" stroke="#2196F3" stroke-width="3" stroke-linejoin="round" stroke-miterlimit="10" d="M205,175.5
	c8.1,19.4,2.9,50.2,2.9,50.2"/>
<path fill="none" stroke="#2196F3" stroke-width="3" stroke-linejoin="round" stroke-miterlimit="10" d="M225.8,176.4
	c8.1,19.4,3.1,51,3.1,51"/>
<path fill="none" stroke="#2196F3" stroke-width="3" stroke-linejoin="round" stroke-miterlimit="10" d="M236.3,176.9
	c8.1,19.4,3.6,50.7,3.6,50.7"/>
<path fill="none" stroke="#2196F3" stroke-width="3" stroke-linejoin="round" stroke-miterlimit="10" d="M246.6,177
	c8.1,19.4,3.4,51.8,3.4,51.8"/>
<path fill="none" stroke="#2196F3" stroke-width="3" stroke-linejoin="round" stroke-miterlimit="10" d="M256.6,176.9
	c8.1,19.4,4.8,51.2,4.8,51.2"/>
<path fill="none" stroke="#2196F3" stroke-width="3" stroke-linejoin="round" stroke-miterlimit="10" d="M215.3,175.9
	c8.1,19.4,3.3,50.7,3.3,50.7"/>
</svg>
