<?xml version="1.0" encoding="utf-8"?>
<!-- Generator: Adobe Illustrator 18.1.1, SVG Export Plug-In . SVG Version: 6.00 Build 0)  -->
<svg version="1.1" id="Layer_1" xmlns="http://www.w3.org/2000/svg" xmlns:xlink="http://www.w3.org/1999/xlink" x="0px" y="0px"
	 viewBox="0 0 281 261" enable-background="new 0 0 281 261" xml:space="preserve">
<g>
	<path fill="none" stroke="#2196F3" stroke-width="3" stroke-miterlimit="10" d="M16.8,250.8c-2.6,1.8-4.8,0.7-4.8-2.5V70.9
		c0-3.2,2.1-7.2,4.7-9L92.9,9.6c2.6-1.8,6.9-1.8,9.5,0l77.2,52.3c2.6,1.8,6.9,1.8,9.5,0l77.1-52.3c2.6-1.8,4.8-0.6,4.8,2.5v177.7
		c0,3.2-2.1,7.2-4.8,9l-77,52c-2.6,1.8-6.9,1.8-9.6,0l-77.2-52c-2.6-1.8-6.9-1.8-9.5,0L16.8,250.8z"/>
</g>
<line fill="none" stroke="#2196F3" stroke-width="2" stroke-miterlimit="10" x1="97.7" y1="196.9" x2="97.7" y2="9.8"/>
<line fill="none" stroke="#2196F3" stroke-width="2" stroke-miterlimit="10" x1="184.4" y1="63.4" x2="184.4" y2="251.7"/>
<path fill="none" stroke="#2196F3" stroke-width="2" stroke-miterlimit="10" d="M251.8,90c0,0-28,10.2-35.1,12.8
	c2.8-1,4.8-4.4,3.3-6.9l-7.7-10.7c0,0-0.9-1.8-3.4-0.9c-2.5,0.9-3.3,3-3.3,3l-5,10.5l-2.8,1c-0.1-0.1-0.2-0.2-0.4-0.4
	c-1.7-1.2-4.6,1.1-4.6,1.1s-4.4,2.9-8.3,5.6v17.5c2.8,1,5.3-3.1,5.3-3.1l7.3-15l0.5-0.2l0,0.1c0,0-0.5,0.6-0.5,2
	c0,3,3.3,2.4,3.3,2.4l1-0.4c0,0,0,0.3,0,0.8c-1,1-1,2.4-1,2.4s0.1,2.6,2.5,1.8c0,0,12.4-4.5,15.9-5.8c3.5-1.3,2.3,2.7,2.3,2.7
	l-9.6,20.5l1.5,0.4l7-14.6l37-13.5l1.8-1.5l-6.8-9.4L251.8,90z"/>
<g>
	<path fill="none" stroke="#2196F3" stroke-width="2" stroke-miterlimit="10" d="M152.5,182.8c-0.1,0.7,0,1.6,0.6,2.8
		c0.7,1.3,1.5,2,2.2,2.4l-9.3-3.4v1.4v0.9v1.4l12.2,4.4v2.5v0.8v12.5v1.7v2.8l24.1,8.8v-4.6l-12.2-4.4v-12.5l12.2,4.4v-3.3v-0.9
		v-0.6v-0.9v-1.4l-9.8-3.6c0,0,1.7,0.6,2.9-0.7c1.2-1.3-0.2-4.1-0.2-4.1l-7.6-16.3c0,0-1-2.5-3.4-3.4c-2.4-0.9-3.5,0.9-3.5,0.9
		l-3.2,4.6l-5.9-6.8l-46.1-53.2c1.4-1.3,2.8-2.5,3.4-2.9c1.2-0.9,0.7-3-0.2-4c-0.9-1.1-2.4-1.8-3.7-0.8c-0.6,0.4-2.1,1.8-3.6,3.1
		l-3.8-4.4v4.9l1.4,1.7c-0.6,0.5-1,0.9-1,0.9l4,4.7c0,0,0.4-0.4,1-0.9l46.1,53.2l6.4,7.4l-1.4,2l-13.5-15.3l-43-49v4.9l40.7,46.4
		L152.5,182.8z"/>
	<path fill="none" stroke="#2196F3" stroke-width="2" stroke-miterlimit="10" d="M122.7,83.1c0.2-0.9,0.3-1.4,0.3-1.4l-5.1-2.8
		c0,0-0.1,0.6-0.3,1.4L97.7,69.2v3.9l19.2,10.7c-0.4,2.2-0.9,4.4-1,5.3c-0.2,1.8,0.9,3.2,2,3.8s2.9,0.4,3.1-1.3
		c0.1-0.8,0.5-2.9,0.9-5l57.7,32l0.7-3.5L122.7,83.1z"/>
	<path fill="none" stroke="#2196F3" stroke-width="2" stroke-miterlimit="10" d="M184.4,105.2c-1.7-0.1-3.3-0.2-4.5-0.2
		c-1.6-0.1-2.2,0.7-2.4,1.7l-4.2-2.4L97.7,61.5v3.9l75,42.4l5.9,3.4l1.9,4.1l-0.1-0.1l-0.7,3.5l3.3,1.9l0.2,0.4
		c0.4,0.7,0.8,1.3,1.3,1.7V105.2z"/>
</g>
<path fill="none" stroke="#2196F3" stroke-width="2" stroke-miterlimit="10" d="M97.7,115.7L40.1,92l-0.8-0.3
	c1.8-0.6,3.5-1.3,4.6-1.7c0.7-0.3,1.3-0.6,1.8-1l3.7,1.6l48.3,20.6v-4.9L51.8,86.7l-3.5-1.5c0.4-0.9,1-2.2,1.6-3.7l4.8-0.8l43-7.4
	v-3.9l-42.3,7.3l-5.6,0.9c-0.1-0.2-0.3-0.3-0.3-0.3L47,73.7l0.9-0.1l49.8-8.1v-3.9l-49,8l-4.1,0.6c-0.4-0.5-1.3-1.3-3-0.7
	c-2.7,1-3.4,3-3.4,3l-2-0.4l-1.5,3.3l2,0.3l-1.8,3.9l-2-0.5l-1.5,3.2l2,0.5l-1.8,3.8L29.5,86L28,89l2,0.6c0,0-1.2,2.3,0.3,3.7
	c1,1,2.2,0.9,2.8,0.7l4.7,1.9l59.9,24.6V115.7z"/>
<polygon fill="none" stroke="#2196F3" stroke-width="2" stroke-miterlimit="10" points="243.7,202.1 262.7,188 262.7,171.4 
	243.7,184.8 "/>
</svg>
