<?xml version="1.0" encoding="utf-8"?>
<!-- Generator: Adobe Illustrator 18.1.1, SVG Export Plug-In . SVG Version: 6.00 Build 0)  -->
<svg version="1.1" id="Layer_1" xmlns="http://www.w3.org/2000/svg" xmlns:xlink="http://www.w3.org/1999/xlink" x="0px" y="0px"
	 viewBox="0 0 1617.7 279.5" enable-background="new 0 0 1617.7 279.5" xml:space="preserve">
<path fill="none" stroke="#2196F3" stroke-width="2" stroke-miterlimit="10" d="M1243.9,90L1243.9,90c0,2.5-2.1,4.6-4.6,4.6h-14.2
	c0-1.6,0-2.1,0-4.6l0,0c0-2.5,0-2.5,0-4.6h14.2C1241.8,85.4,1243.9,87.5,1243.9,90z"/>
<rect x="1047.2" y="52.1" fill="none" stroke="#2196F3" stroke-width="2" stroke-miterlimit="10" width="7" height="76"/>
<rect x="1011.5" y="52.1" fill="none" stroke="#2196F3" stroke-width="2" stroke-miterlimit="10" width="7" height="76"/>
<path fill="none" stroke="#2196F3" stroke-width="2" stroke-miterlimit="10" d="M1054.2,117.6l157,0c7.6,0,13.8-6.2,13.8-13.8
	c0-0.3,0-0.7,0-1V77.4c0-0.3,0-0.6,0-1c0-7.6-6.2-13.8-13.8-13.8l-157,0V117.6z"/>
<path fill="none" stroke="#2196F3" stroke-width="2" stroke-miterlimit="10" d="M1055.7,64.5l32.4,52.5c0.2,0.4,0.7,0.6,1.1,0.6
	l120,0c1,0,1.6-1.1,1.1-2l-32.4-52.5c-0.2-0.4-0.7-0.6-1.1-0.6l-120,0C1055.8,62.6,1055.2,63.7,1055.7,64.5z"/>
<rect x="1018.5" y="94.8" fill="none" stroke="#2196F3" stroke-width="2" stroke-miterlimit="10" width="28.7" height="18.7"/>
<rect x="1018.5" y="65.3" fill="none" stroke="#2196F3" stroke-width="2" stroke-miterlimit="10" width="28.7" height="18.7"/>
<path fill="none" stroke="#2196F3" stroke-width="2" stroke-miterlimit="10" d="M1011.5,266.7c0,6.6,4.2,12,9.4,12l582.4,0
	c-5.2,0-9.4-5.4-9.4-12c0-6.6,4.2-12,9.4-12l-582.4,0C1015.7,254.7,1011.5,260,1011.5,266.7z"/>
<ellipse fill="none" stroke="#2196F3" stroke-width="2" stroke-miterlimit="10" cx="1603.3" cy="266.7" rx="9.4" ry="12"/>
<path fill="none" stroke="#2196F3" stroke-width="2" stroke-miterlimit="10" d="M1011.5,232.7c0,6.6,4.2,12,9.4,12l582.4,0
	c-5.2,0-9.4-5.4-9.4-12c0-6.6,4.2-12,9.4-12l-582.4,0C1015.7,220.7,1011.5,226,1011.5,232.7z"/>
<ellipse fill="none" stroke="#2196F3" stroke-width="2" stroke-miterlimit="10" cx="1603.3" cy="232.7" rx="9.4" ry="12"/>
<path fill="none" stroke="#2196F3" stroke-width="2" stroke-miterlimit="10" d="M1011.5,196.7c0,6.6,4.2,12,9.4,12l582.4,0
	c-5.2,0-9.4-5.4-9.4-12c0-6.6,4.2-12,9.4-12l-582.4,0C1015.7,184.7,1011.5,190,1011.5,196.7z"/>
<ellipse fill="none" stroke="#2196F3" stroke-width="2" stroke-miterlimit="10" cx="1603.3" cy="196.7" rx="9.4" ry="12"/>
<path fill="none" stroke="#2196F3" stroke-width="2" stroke-miterlimit="10" d="M1011.5,160.7c0,6.6,4.2,12,9.4,12l582.4,0
	c-5.2,0-9.4-5.4-9.4-12c0-6.6,4.2-12,9.4-12l-582.4,0C1015.7,148.7,1011.5,154,1011.5,160.7z"/>
<ellipse fill="none" stroke="#2196F3" stroke-width="2" stroke-miterlimit="10" cx="1603.3" cy="160.7" rx="9.4" ry="12"/>
<path fill="none" stroke="#2196F3" stroke-width="2" stroke-miterlimit="10" d="M941,51.4c-5.7,0-11.3-0.1-17,0
	c-1.5,0-2.4-0.3-3-1.8c-1.8-4.2-5.3-6.5-9.2-6.2c-4,0.4-7.5,2.3-8.9,7.3c-1.2,4.3,1.4,9.6,5.1,11.2c6.1,2.7,11.6-0.8,13-4.9
	c0.6-1.7,1.4-2.2,3.2-2.2c11.4,0.1,22.8,0.1,34.2,0c2.2,0,2.7,0.7,2.6,2.7c-0.1,3.5-0.2,7,0,10.5c0.1,2.1-0.5,2.9-2.8,2.9
	c-10.2-0.1-20.3-0.1-30.5,0c-3.8,0-8,5.3-6.7,8.9c0.7,1.8,2.6,2.9,4,4.4c1.2,1.3,2,5.4,1.4,6.9c-0.3,0.7-1,0.8-1.7,0.8
	c-7.8,0-15.7,0-23.5,0c-1.3,0-1.7-0.5-1.8-1.8c-0.2-2.8,0-5.5,2.7-7.2c2.9-1.8,2.6-4.7,2.2-7.3c-0.3-2-2.7-2.9-3.9-4.4
	c-0.4-0.6-1.1-0.8-1-1.7c0.2-2.6-0.5-4.6-2.2-6.9c-3.4-4.8-3.9-10.4-1.4-15.9c0.8-1.7,1.4-3.4,2.8-4.8c0.5-0.5,1-1.4,0.8-2.2
	c-0.6-2.7,0.6-4.7,2.7-6.1c2.8-1.9,2.6-4.7,2.2-7.3c-0.3-1.9-2.6-2.7-3.8-4.3c-0.7-0.9-1.7-5.7-1.1-6.6c0.3-0.5,0.9-0.4,1.4-0.4
	c8.1,0,16.2,0,24.2,0c0.5,0,1-0.2,1.3,0.4c0.5,0.9-0.2,5.5-1,6.3c-1,1-2,2.1-3.1,3.1c-2,2-1.9,5.1-0.1,7.3c2.2,2.7,4.7,3.6,8.1,3.5
	c9.2-0.2,18.5,0,27.7-0.1c2.1,0,3,0.4,2.9,2.7c-0.2,3.6-0.1,7.2,0,10.7c0.1,1.9-0.5,2.6-2.5,2.6C952.7,51.3,946.8,51.4,941,51.4z"/>
<path fill="none" stroke="#2196F3" stroke-width="2" stroke-miterlimit="10" d="M917.8,120.9c5.6,0,11.2,0.1,16.7,0
	c1.8,0,2.7,0.4,3.4,2.2c1.5,3.9,6.3,6.6,9.8,5.8c5.6-1.3,9-4.9,8.8-9.7c-0.3-5.5-3.2-8.7-8.3-9.6c-4.2-0.8-9.4,1.7-10.7,6.7
	c-0.2,0.8-0.4,1.2-1.5,1c-3.7-0.7-7.4-0.1-11.1-0.2c-8.6-0.1-17.2-0.1-25.8-0.1c-0.9,0-1.1-0.4-1.1-1.2c0-4.3,0.1-8.7,0-13
	c0-1.8,1.1-1.3,2-1.3c10.2,0,20.5,0,30.7,0c1.7,0,6.4-3.1,6.6-4.8c0.3-2.3,1-5-1.7-6.8c-2.9-1.9-3.6-4.7-3.2-7.9
	c0.1-0.9,0.1-1.5,1.3-1.5c8,0,16,0,24,0c1.1,0,1.7,0.4,1.7,1.6c0,2.5,0.5,4.9-2.3,6.6c-1.9,1.2-3.7,2.9-3.3,5.9
	c0.2,1.6,0.6,2.8,1.8,3.8c2.5,2,4.7,4.2,3.8,7.9c-0.2,0.9,0.5,1.3,1,1.9c4.9,6.3,5.2,15.2,0,21.5c-1,1.2-1.2,2.5-1,3.9
	c0.2,1.9-0.4,3.2-1.8,4.5c-1.4,1.2-3.3,2.3-3.6,4.2c-0.4,2.2-0.3,4.4,2,5.9c2.7,1.8,4.1,4.3,3.5,7.8c-0.2,1.1-0.4,1.4-1.5,1.4
	c-8.1,0-16.2,0-24.2,0c-0.4,0-0.9,0-1.2-0.3c-0.5-0.4-0.2-6,0.3-6.5c0.8-0.8,1.6-1.7,2.5-2.5c3.5-3.5,2.4-9.2-2.2-11.2
	c-0.6-0.2-1.3-0.1-2-0.1c-10.2,0-20.5,0-30.7,0c-1.9,0-2.7-0.5-2.6-2.5c0.1-3.9,0.1-7.8,0-11.7c0-1.4,0.4-1.8,1.8-1.8
	C905.8,120.9,911.8,120.9,917.8,120.9z"/>
<path fill="none" stroke="#2196F3" stroke-width="2" stroke-miterlimit="10" d="M794,24.5c4.7,0,9.5,0,14.2,0c5.1,0,7.5-2,8.5-7.1
	c0.2-1,0.7-1.4,1.6-1.4c0.8,0,1.7,0,2.5,0c16.7,0,33.5,0,50.2,0.1c2.1,0,4.1,0.1,6.2,0.3c5.8,0.5,11,5,12.3,11.6
	c0.9,4.7-0.5,10.8-6.4,14.6c-3.1,2-6.4,2.6-10,2.5c-4.8-0.1-9.7,0-14.5,0c-13.1,0-26.2,0-39.2,0c-1.7,0-2.6-0.1-2.8-2.3
	c-0.4-3.5-4.6-6.3-7.6-6.3c-10.2,0.1-20.5,0-30.7,0.1c-1.6,0-2.2-0.3-2.1-2c0.2-2.6,0.1-5.2,0-7.7c-0.1-1.7,0.5-2.3,2.3-2.3
	C783.7,24.6,788.9,24.5,794,24.5z"/>
<path fill="none" stroke="#2196F3" stroke-width="2" stroke-miterlimit="10" d="M561,245.9c0-3,1.9-5,4.8-5c2.3,0,4.7,2.4,4.7,4.8
	c0.1,2.9-2.1,5.1-5,5.1C563,250.9,561,248.8,561,245.9z"/>
<path fill="none" stroke="#2196F3" stroke-width="2" stroke-miterlimit="10" d="M565.7,44.9c-3.2,0-4.7-1.4-4.7-4.5c0-2.9,2-5,4.8-5
	c2.8,0,4.7,2.1,4.7,5C570.5,43.1,568.6,44.9,565.7,44.9z"/>
<path fill="none" stroke="#2196F3" stroke-width="2" stroke-miterlimit="10" d="M957.4,246.8c-0.2-3.1-0.9-6.1-1.5-9.1
	c-1.3-6.8-2.6-13.7-3.9-20.5c-1.2-6.7-2.4-13.4-3.6-20.1c-1-5.6-2.3-10.9-6.9-14.9c-5.1-4.4-10.6-6-17.1-4.5c-4,0.9-7.1,3.3-10.1,6
	c-5.4,4.8-11,9.3-16.4,14c-3.9,3.3-7.7,6.7-11.5,10c-5.3,4.5-10.6,9-15.9,13.5c-3.9,3.4-7.7,6.9-11.7,10.1
	c-6.1,4.9-9.1,10.9-7.8,18.9c1.4,8.8,9.7,15.5,17.9,15.6c21.9,0.3,43.7-0.4,65.2,0.4c3.3,0.5,6.1,0,8.8-0.6
	C950.7,264,957.9,255.6,957.4,246.8z M869.5,251.9c-2.1,0-5.1-3.1-4.9-5.2c0.2-2.5,2.7-4.8,5.2-4.8c2.2,0,4.8,2.9,4.7,5.1
	C874.4,249,871.4,251.9,869.5,251.9z M928.7,200.9c-2.2,0-4.8-2.8-4.7-5.1c0-2.6,2.1-4.5,5.1-4.4c2.9,0,4.8,1.8,4.8,4.6
	C933.9,198.4,931.3,200.9,928.7,200.9z M938.6,251.9c-2.9,0-5-1.9-5.1-4.7c0-2.4,2.6-4.8,5.1-4.8c2.3,0,4.8,2.5,4.9,4.9
	C943.6,249.8,941.4,251.9,938.6,251.9z"/>
<path fill="none" stroke="#2196F3" stroke-width="2" stroke-miterlimit="10" d="M902.1,146.3c-3.9-1.4-7.7-2.9-11.5-4.4
	c-10-3.8-20-7.6-30.1-11.2c-5.6-2-11-5.1-17.5-3.9c-6.4,1.1-12.2,5.7-14.5,11.3c-1.9,4.7-2.1,9.8-3,14.7c-1,5.4-1.7,10.9-2.6,16.4
	c-1.1,6.5-2.3,12.9-3.4,19.4c-1.1,6.5-1.8,13.1-3.2,19.5c-1.2,5.4-0.7,10.1,1.9,15c4.1,7.4,13.8,11.2,21.9,8.6
	c5.9-2,10-6.6,14.7-10.3c5.4-4.3,10.5-8.8,15.8-13.2c6.3-5.2,12.7-10.3,19-15.5c5.4-4.4,10.5-9.2,16-13.4c5.2-4,7.9-8.9,8-16.5
	C914.3,156.3,908.4,148.6,902.1,146.3z M834.2,218.4c-2.1,0-4.6-2.7-4.7-4.9c-0.1-2.5,2.3-4.6,5.3-4.6c2.7,0,4.8,2.2,4.7,4.9
	C839.4,216.1,836.8,218.4,834.2,218.4z M845.8,150.4c-2.2,0-4.8-2.7-4.8-5c0-2.6,2.1-4.5,5-4.5c3,0,4.9,2,4.8,4.8
	C850.8,148.1,848.3,150.4,845.8,150.4z M894.8,168.4c-2.9,0-4.8-1.9-4.8-4.9c0-2.6,2-4.5,4.9-4.6c2.5,0,4.6,2,4.6,4.7
	C899.5,166.3,897.6,168.4,894.8,168.4z"/>
<path fill="none" stroke="#2196F3" stroke-width="2" stroke-miterlimit="10" d="M445.9,226.9c-24.2,0-48.5,0-72.7,0
	c-24.4,0-48.8,0-73.2,0c-0.7,0-1.5-0.1-2.2,0.1c-8.9,2.4-14.4,9-13.4,18.7c0.8,7.6,8.7,13.8,15.1,13.8c28-0.1,56,0,84,0
	c21.2,0,42.3-0.1,63.5,0c8.2,0.1,15.7-7.7,15.8-16.1C462.6,233.9,454.6,226.9,445.9,226.9z M300,247.9c-2.7,0-4.9-2.2-4.8-4.8
	c0.1-2.3,2.6-4.7,5-4.7c2.3,0,5.1,2.7,5,4.8C305.1,246.1,303.1,247.9,300,247.9z M373.3,247.9c-2.9,0-5.1-2.1-5-4.8
	c0.1-2.4,2.7-4.7,5.3-4.7c2.1,0,4.8,2.8,4.7,4.9C378.1,246,376.1,247.9,373.3,247.9z M446.3,247.9c-2.9,0-5.1-2-5.1-4.8
	c0-2.3,2.5-4.7,4.9-4.7c2.5,0,5.2,2.5,5.1,4.8C451.1,246,449.1,247.9,446.3,247.9z"/>
<path fill="none" stroke="#2196F3" stroke-width="2" stroke-miterlimit="10" d="M462.6,122V80.5l0,0c-0.1-5.9-4.9-10.6-10.8-10.6
	s-10.7,4.7-10.8,10.6l0,0V122h3.1v42.2c0,4.3,3.4,7.7,7.7,7.7s7.7-3.4,7.7-7.7c0,0,0,0,0,0V122H462.6z M451.8,75.5
	c2.6,0,4.7,2.1,4.7,4.7c0,2.6-2.1,4.7-4.7,4.7c-2.6,0-4.7-2.1-4.7-4.7C447.1,77.6,449.2,75.5,451.8,75.5z"/>
<path fill="none" stroke="#2196F3" stroke-width="2" stroke-miterlimit="10" d="M436.6,122V80.5l0,0c-0.1-5.9-4.9-10.6-10.8-10.6
	s-10.7,4.7-10.8,10.6l0,0V122h3.1v42.2c0,4.3,3.4,7.7,7.7,7.7s7.7-3.4,7.7-7.7c0,0,0,0,0,0V122H436.6z M425.8,75.5
	c2.6,0,4.7,2.1,4.7,4.7c0,2.6-2.1,4.7-4.7,4.7c-2.6,0-4.7-2.1-4.7-4.7C421.1,77.6,423.2,75.5,425.8,75.5z"/>
<path fill="none" stroke="#2196F3" stroke-width="2" stroke-miterlimit="10" d="M410.9,122V80.5l0,0c-0.1-5.9-4.9-10.6-10.8-10.6
	s-10.7,4.7-10.8,10.6l0,0V122h3.1v42.2c0,4.3,3.4,7.7,7.7,7.7s7.7-3.4,7.7-7.7c0,0,0,0,0,0V122H410.9z M400.2,75.5
	c2.6,0,4.7,2.1,4.7,4.7c0,2.6-2.1,4.7-4.7,4.7c-2.6,0-4.7-2.1-4.7-4.7C395.4,77.6,397.6,75.5,400.2,75.5z"/>
<path fill="none" stroke="#2196F3" stroke-width="2" stroke-miterlimit="10" d="M385.1,122V80.5l0,0c-0.1-5.9-4.9-10.6-10.8-10.6
	s-10.7,4.7-10.8,10.6l0,0V122h3.1v42.2c0,4.3,3.4,7.7,7.7,7.7s7.7-3.4,7.7-7.7c0,0,0,0,0,0V122H385.1z M374.3,75.5
	c2.6,0,4.7,2.1,4.7,4.7c0,2.6-2.1,4.7-4.7,4.7c-2.6,0-4.7-2.1-4.7-4.7C369.6,77.6,371.7,75.5,374.3,75.5z"/>
<path fill="none" stroke="#2196F3" stroke-width="2" stroke-miterlimit="10" d="M412.7,174.6l-41.6,0l0,0
	c-5.9,0.1-10.6,4.9-10.6,10.8s4.7,10.7,10.6,10.8l0,0l41.6,0v-3.1l42.2,0c4.3,0,7.7-3.4,7.7-7.7c0-4.3-3.4-7.7-7.7-7.7c0,0,0,0,0,0
	h-42.2V174.6z M366.2,185.4c0-2.6,2.1-4.7,4.7-4.7c2.6,0,4.7,2.1,4.7,4.7c0,2.6-2.1,4.7-4.7,4.7C368.3,190.1,366.2,188,366.2,185.4z
	"/>
<path fill="none" stroke="#2196F3" stroke-width="2" stroke-miterlimit="10" d="M412.7,200.6l-41.6,0l0,0
	c-5.9,0.1-10.6,4.9-10.6,10.8c0,5.9,4.7,10.7,10.6,10.8l0,0h41.6v-3.1l42.2,0c4.3,0,7.7-3.4,7.7-7.7s-3.4-7.7-7.7-7.7c0,0,0,0,0,0
	l-42.2,0V200.6z M366.2,211.4c0-2.6,2.1-4.7,4.7-4.7c2.6,0,4.7,2.1,4.7,4.7c0,2.6-2.1,4.7-4.7,4.7
	C368.3,216.1,366.2,214,366.2,211.4z"/>
<polygon fill="none" stroke="#2196F3" stroke-width="2" stroke-miterlimit="10" points="356.5,88.9 359.6,88.9 356.5,82.4 
	347.5,82.3 344.4,88.9 347.5,88.9 347.5,118.8 344.4,118.8 347.5,125.3 356.5,125.4 359.6,118.8 356.5,118.8 "/>
<polygon fill="none" stroke="#2196F3" stroke-width="2" stroke-miterlimit="10" points="340.3,88.9 343.4,88.9 340.3,82.4 
	331.3,82.3 328.2,88.9 331.3,88.9 331.3,118.8 328.2,118.8 331.3,125.3 340.3,125.4 343.4,118.8 340.3,118.8 "/>
<polygon fill="none" stroke="#2196F3" stroke-width="2" stroke-miterlimit="10" points="323.5,88.9 326.6,88.9 323.5,82.4 
	314.5,82.3 311.4,88.9 314.5,88.9 314.5,118.8 311.4,118.8 314.5,125.3 323.5,125.4 326.6,118.8 323.5,118.8 "/>
<polygon fill="none" stroke="#2196F3" stroke-width="2" stroke-miterlimit="10" points="307.1,88.9 310.2,88.9 307.1,82.4 
	298.1,82.3 295,88.9 298.1,88.9 298.1,118.8 295,118.8 298.1,125.3 307.1,125.4 310.2,118.8 307.1,118.8 "/>
<polygon fill="none" stroke="#2196F3" stroke-width="2" stroke-miterlimit="10" points="183.7,12.1 183.7,62.4 183.7,70.2 
	183.7,112.7 206.6,112.7 206.6,70.2 266.8,70.2 266.8,112.7 289.7,112.7 289.7,70.2 289.7,62.4 289.7,12.1 "/>
<path fill="none" stroke="#2196F3" stroke-width="2" stroke-miterlimit="10" d="M350.2,42.3l102.6,0l0,0c5.9-0.1,10.6-4.9,10.6-10.8
	s-4.7-10.7-10.6-10.8l0,0l-102.6,0l0,3.1l-42.2,0c-4.3,0-7.7,3.4-7.7,7.7s3.4,7.7,7.7,7.7c0,0,0,0,0,0l42.2,0V42.3z M457.8,31.5
	c0,2.6-2.1,4.7-4.7,4.7c-2.6,0-4.7-2.1-4.7-4.7c0-2.6,2.1-4.7,4.7-4.7C455.7,26.8,457.8,28.9,457.8,31.5z"/>
<path fill="none" stroke="#2196F3" stroke-width="2" stroke-miterlimit="10" d="M350.2,66.9l102.6,0l0,0c5.9-0.1,10.6-4.9,10.6-10.8
	s-4.7-10.7-10.6-10.8l0,0l-102.6,0l0,3.1l-42.2,0c-4.3,0-7.7,3.4-7.7,7.7s3.4,7.7,7.7,7.7c0,0,0,0,0,0l42.2,0V66.9z M457.8,56.2
	c0,2.6-2.1,4.7-4.7,4.7c-2.6,0-4.7-2.1-4.7-4.7c0-2.6,2.1-4.7,4.7-4.7C455.7,51.4,457.8,53.6,457.8,56.2z"/>
<path fill="none" stroke="#2196F3" stroke-width="2" stroke-miterlimit="10" d="M352.2,159.4c-4.4-3-9.1-5.5-13.7-8.2
	c-9.6-5.5-19.1-11.2-28.6-16.9c-8.1-4.8-16.1-9.5-24.2-14.3c-5.2-3.1-10.7-5.1-16.6-3.5c-7.8,2.1-13.3,7.8-14.3,16.5
	c0,0.2,0,0.3-0.1,0.5h-10.4c0-0.2-0.1-0.4-0.1-0.7c0.1-4.6-0.1-9.2,0.1-13.7c0.1-1.5,0.7-2.9,2.3-4c5.5-3.6,8.5-8.5,8.2-15.4
	c-0.4-9.3-8.7-15.3-16.5-15.2c-4.9,0-9,2.4-12.3,6.3c-5.8,6.9-4.4,17.4,2.5,22.7c1.9,1.4,4.3,2.6,4.2,5.6c0,4.5,0,9,0,13.5
	c0,0.4,0,0.8-0.2,1h-10.2c-0.1-0.1-0.1-0.3-0.2-0.6c-0.5-6.5-3.8-11.3-9.3-14.5c-5.9-3.5-12.2-3.7-18.2-0.6
	c-7,3.6-13.6,7.8-20.4,11.6c-6.7,3.8-13.4,7.5-20.1,11.3c-8.8,5-17.4,10.3-26.3,15.1c-7.9,4.3-12,10.4-11.3,19.6
	c0.3,4.1,1.9,7.5,4.6,10.4c2.8,3,6.3,4.8,9.8,6.8c11.5,6.6,22.9,13.4,34.3,20.1c8.1,4.8,16.2,9.7,24.4,14.4
	c4.9,2.8,9.8,5.3,15.9,4.4c8.4-1.2,15.2-8.5,16-16.6c0-0.3,0.1-0.5,0.1-0.7H232c0.2,0.3,0.3,0.7,0.3,1.3c-0.1,3.8-0.1,7.7,0,11.5
	c0,2.8-0.9,4.9-3.4,6.4c-5.6,3.5-8.8,11.8-7,17.7c2.3,7.1,9.4,13,18.4,11.9c8.9-1.2,16.3-11.2,13.2-20.7c-1.2-3.8-3.7-6.5-6.7-8.8
	c-1.9-1.4-3.3-2.9-3.1-5.5c0.2-1.9,0-3.8,0-5.7c0-2.2,0.1-4.3,0-6.5c0-0.7,0-1.2,0.3-1.5h9.9c0.2,0.2,0.3,0.6,0.4,1.1
	c1.6,13.9,16.5,20.6,27.8,14.5c9.9-5.3,19.6-11,29.3-16.5c11.9-6.8,23.7-13.6,35.5-20.4c3.9-2.3,7.8-4.5,10.2-8.7
	C361.9,176.3,360.3,165.1,352.2,159.4z M238.7,95.9c2.2,0,4.9,2.8,4.9,5.2c0,2.3-2.7,4.8-5,4.8c-2.4-0.1-4.9-2.5-4.9-4.9
	C233.7,98.6,236.3,95.9,238.7,95.9z M203,217.4c-3.3,0-4.7-1.4-4.8-4.4c0-2.9,1.9-5,4.7-5.1c2.5,0,4.8,2.5,4.8,5.1
	C207.7,215.5,205.6,217.4,203,217.4z M202.9,165.4c-2.6,0-4.6-2-4.7-4.7c-0.1-2.4,2.4-4.9,5-4.8c2.4,0,4.9,2.4,5,4.7
	C208.3,163.1,205.8,165.4,202.9,165.4z M232.6,199h-10.1v-18h10.1V199z M232.6,166.9h-10.1v-18h10.1V166.9z M242.7,247.2
	c-0.3,2.5-3.2,5-5.4,4.7c-2.3-0.3-4.8-3.5-4.6-5.6c0.3-2.1,3.3-4.6,5.5-4.4C240.5,242.1,243,245,242.7,247.2z M254.2,199h-10.1v-18
	h10.1V199z M254.2,166.9h-10.1v-18h10.1V166.9z M273.1,217.9c-2.8,0-4.8-1.9-4.8-4.6c0-2.8,2-4.8,5-4.9c2.6,0,4.5,2.1,4.5,5
	C277.8,216.2,276,217.9,273.1,217.9z M273.1,165.9c-2.7-0.1-4.4-2-4.4-5c0-3,1.6-4.5,4.8-4.5c2.7,0,4.8,2.1,4.7,4.8
	C278.2,164,276.1,165.9,273.1,165.9z"/>
<path fill="none" stroke="#2196F3" stroke-width="2" stroke-miterlimit="10" d="M125.5,202c-2.1-7.1-7.3-11.4-14.4-13.1
	c-1.4-0.3-2.2-0.8-2.7-1.5V177h-5.6c0-3.1,0-6.2,0-9.4h5.6v-11.6c0.2-0.2,0.4-0.2,0.9-0.2c1.9,0.2,3.4-0.7,5.1-1.3
	c10-3.5,14.9-16.7,9.8-25.6c-4.7-8.4-9.4-16.8-14.3-25.1c-4.4-7.4-8.3-15.2-13.2-22.3c-3.6-5.2-8.4-8.3-14.9-8.2
	c-4.6,0.1-9.2-0.4-13.8-0.1c-4.8,0.3-9.7,0.1-14.5,0c-3,0-5.5,1-8,2.5c-4.8,2.8-7.2,7.5-9.8,12.1c-4.2,7.3-8.4,14.5-12.6,21.8
	c-3.8,6.6-7.8,13-11.2,19.9c-4.8,9.7,0,21.4,10.6,25.3c1.8,0.7,4.4,0,5.4,1.6v11.1h5.2c0,3.2,0,6.3,0,9.4h-5.2v10.8
	c-0.5,0.6-1.3,0.9-2.4,1.1c-9.9,1.4-18.2,12.9-14.4,24c2.2,6.6,6.5,12.2,9.9,18.3c5.3,9.7,11.1,19.2,16.6,28.8
	c4.2,7.3,10.1,11.7,19,11.5c8.5-0.2,17,0,25.5-0.1c5.9-0.1,11-2.6,14.1-7.5c4.7-7.1,8.8-14.7,13.1-22.1c4.2-7.3,8.2-14.7,12.7-21.8
	C125.4,214.4,127.5,208.6,125.5,202z M107.3,132.9c2.9,0,4.4,1.5,4.4,4.3c0,2.6-2.1,4.8-4.6,4.7c-2.3-0.1-4.5-2.5-4.4-4.9
	C102.8,134.8,105,132.9,107.3,132.9z M81.4,87.4c2.1,0,4.3,2.4,4.3,4.8c0,2.7-1.7,4.2-4.6,4.2c-2.8,0-4.5-1.7-4.4-4.4
	C76.8,89.7,79.1,87.4,81.4,87.4z M55.3,87.4c2.1,0,4.6,2.7,4.5,4.8c-0.1,2.1-2.3,4.1-4.6,4.1c-2.9,0-4.4-1.5-4.4-4.3
	C50.7,89.5,52.8,87.4,55.3,87.4z M24.7,137.1c0-2.7,1.5-4.3,4.2-4.3c2.5,0,4.8,2,4.8,4.3c0,2.1-2.4,4.7-4.4,4.7
	C26.8,141.9,24.7,139.8,24.7,137.1z M28.9,211.9c-2.3-0.1-4.2-2.1-4.2-4.7c0-2.7,1.6-4.3,4.5-4.3c2.3,0,4.6,2.2,4.5,4.5
	C33.7,209.9,31.5,211.9,28.9,211.9z M55,256.9c-2.6,0-4.2-1.8-4.2-4.5c0-2.4,2.2-4.5,4.5-4.5c2.5,0,4.5,2.2,4.5,4.8
	C59.7,254.9,57.5,256.9,55,256.9z M53.7,188.4c-2.9,0.1-5.8,0-8.7,0c-0.6,0-1,0-1.3-0.3V177h-5.3c0-3.1,0-6.2,0-9.4h5.3V157
	c0-0.1,0.1-0.1,0.1-0.2c1.6-1.3,5.1-0.4,7.7-0.4c2.6,0,5.2,0,7.7,0c0.5,0,0.9,0,1.2,0.2v11.1h5.3c0,3.1,0,6.3,0,9.4h-5.3v10.8
	c0,0,0,0,0,0.1C59.1,189.4,56,188.3,53.7,188.4z M80.9,256.9c-2.3,0-4.2-2.1-4.2-4.6c0-2.2,2.1-4.3,4.4-4.4c2.4-0.1,4.5,2.1,4.6,4.7
	C85.8,255,83.7,256.9,80.9,256.9z M77.1,188.4c-0.5,0-0.9-0.1-1.1-0.3V177h-4.9c-0.4-0.4-0.5-1.2-0.5-2.3c0.2-2.3,0.1-4.7,0.1-7.1
	H76v-10.9c0.3-0.3,0.8-0.5,1.6-0.4c4.6,0.1,9.2,0.1,13.7,0c0.7,0,1.1,0.1,1.4,0.3v11h5.3c0,3.1,0,6.3,0,9.4h-5.3v11.2
	c-0.2,0.1-0.5,0.2-0.9,0.2C87,188.4,82,188.4,77.1,188.4z M107.4,211.9c-2.5,0.1-4.5-2-4.6-4.6c-0.1-2.2,2.1-4.3,4.6-4.4
	c2.2-0.1,4.3,2.1,4.4,4.4C111.8,209.7,109.8,211.8,107.4,211.9z"/>
<path fill="none" stroke="#2196F3" stroke-width="2" stroke-miterlimit="10" d="M810.5,101.7c0-4.7-0.5-9.4-1.7-13.9
	c-3.9-14.4-12.2-26-24.7-34.3c-9.9-6.6-21.2-9.3-33-9.6c-4.4-0.1-8.8,0.3-13.1,0.3c-19.3,0-38.6,0.7-57.9-0.3
	c-7.3-0.4-14.7-0.1-21.9,1.4c-18.1,3.7-31.3,13.9-40.1,30c-1.7,3.2-3,6.6-4.3,10.2c-0.5-0.6-0.7-0.8-0.9-1.2
	c-2.2-3.9-4.4-7.9-6.6-11.8c-7.2-12.4-14.5-24.8-21.7-37.3c-2.4-4.1-4.7-8.2-8.9-10.9c-8.5-5.4-17.8-3.2-23.7,2.9
	c-4,4-6.1,9.5-9,14.4c-4.9,8.2-9.6,16.5-14.3,24.7c-2.3,4-5,7.8-4.4,12.9c0.2,1.4-0.4,3.1-1.1,4.6c-1.9,4.2-5.2,7.5-8.7,9.9
	c-8.2,5.6-9.1,20.2-1.5,27.2c3.5,3.3,7.5,5.6,12.3,5.8v0h0c0.5,0,1.1,0,1.7,0c0,0,0,0,0,0h1.5c0.2,0.1,0.3,0.2,0.4,0.4v9.6
	c0,0.1-0.1,0.1-0.1,0.2h-5V149h1.6c0.3,0.1,0.7,0.1,1.2,0h1.9c0.2,0.1,0.4,0.3,0.5,0.5v9.4c-0.2,0.4-0.6,0.5-1.3,0.5
	c-2-0.1-3.9,0-5.9,0.5c-9.7,2.5-16.2,13.4-13.4,23.4c1.5,5.4,5.5,8.3,9.2,11.6c4,3.6,7.3,7.5,7,13.3c-0.1,1.2-0.2,2.5,0.2,3.7
	c1.5,4.6,4.4,8.4,6.7,12.6c5.1,9.1,10.4,18.1,15.7,27.1c2,3.4,3.8,6.9,7.2,9.4c9.9,7.4,21.7,4.3,27.7-5.3c4-6.4,7.6-13.1,11.4-19.7
	c4.8-8.3,9.5-16.5,14.3-24.8c2-3.4,4-6.8,6.2-10.4c1.3,4.5,3,8.5,5.1,12.3c5.6,10.2,13.6,17.9,23.8,23.4c9.1,4.9,18.9,6.7,29.1,7
	c6.8,0.2,13.6-0.2,20.4-0.4c6.9-0.2,13.8-0.2,20.7,0c7.9,0.2,15.7-0.1,23.6,0.3c9.4,0.5,18.8,0.6,28.1-1.4
	c11.2-2.4,20.9-7.7,29-15.9c5.2-5.3,9.4-11.4,12.3-18.3c2.9-6.9,4.6-14,4.6-21.5C810.5,158,810.4,129.8,810.5,101.7z M558.5,159.4
	H544v-10.6h14.6V159.4z M558.5,137.4H544v-10.6h14.6V137.4z M587.4,159.4h-14.6v-10.6h7c0,4.2,3.4,7.5,7.5,7.5V159.4z M587.4,129.9
	c-4.2,0-7.5,3.4-7.5,7.5h-7v-10.6h14.6V129.9z M611.4,159.4h-8.8v-3.1h8.8V159.4z M611.4,129.9h-8.8v-3.1h8.8V129.9z M765,185
	c0,7.1-3.7,11.2-10.7,12.5c-1.9,0.3-3.8,0.4-5.6,0.4c-25.8,0-51.6,0-77.5,0c-8.8,0-14.3-5.7-14.2-14.2c0.1-26.9,0.1-53.8,0-80.7
	c0-6.2,4.7-13,11.3-13.2c1.8-0.1,3.6-0.4,5.4-0.4c25.8,0,51.6-0.1,77.5,0c7.3,0,11.2,2.2,13.6,9.4c0.3,0.8,0.2,1.6,0.2,2.4
	c0,14.2,0,28.3,0,42.5C765,157.5,765,171.3,765,185z"/>
<rect x="494.1" y="1" fill="none" stroke="#2196F3" stroke-width="2" stroke-miterlimit="10" width="482.9" height="277.5"/>
<rect x="1.3" y="1" fill="none" stroke="#2196F3" stroke-width="2" stroke-miterlimit="10" width="478.5" height="277.5"/>
<g>
	<rect x="1263.7" y="110.9" fill="none" stroke="#2196F3" stroke-width="2" stroke-miterlimit="10" width="15.2" height="6.6"/>
	<rect x="1266.7" y="74.4" fill="none" stroke="#2196F3" stroke-width="2" stroke-miterlimit="10" width="9" height="36.5"/>
</g>
<g>
	<rect x="1310.8" y="110.9" fill="none" stroke="#2196F3" stroke-width="2" stroke-miterlimit="10" width="15.2" height="6.6"/>
	<rect x="1313.9" y="74.4" fill="none" stroke="#2196F3" stroke-width="2" stroke-miterlimit="10" width="9" height="36.5"/>
</g>
<g>
	<rect x="1358" y="110.9" fill="none" stroke="#2196F3" stroke-width="2" stroke-miterlimit="10" width="15.2" height="6.6"/>
	<rect x="1361.1" y="74.4" fill="none" stroke="#2196F3" stroke-width="2" stroke-miterlimit="10" width="9" height="36.5"/>
</g>
<g>
	<rect x="1405.2" y="110.9" fill="none" stroke="#2196F3" stroke-width="2" stroke-miterlimit="10" width="15.2" height="6.6"/>
	<rect x="1408.3" y="74.4" fill="none" stroke="#2196F3" stroke-width="2" stroke-miterlimit="10" width="9" height="36.5"/>
</g>
<g>
	<rect x="1452.4" y="110.9" fill="none" stroke="#2196F3" stroke-width="2" stroke-miterlimit="10" width="15.2" height="6.6"/>
	<rect x="1455.4" y="74.4" fill="none" stroke="#2196F3" stroke-width="2" stroke-miterlimit="10" width="9" height="36.5"/>
</g>
<g>
	<rect x="1499.5" y="110.9" fill="none" stroke="#2196F3" stroke-width="2" stroke-miterlimit="10" width="15.2" height="6.6"/>
	<rect x="1502.6" y="74.4" fill="none" stroke="#2196F3" stroke-width="2" stroke-miterlimit="10" width="9" height="36.5"/>
</g>
<g>
	<rect x="1546.7" y="110.9" fill="none" stroke="#2196F3" stroke-width="2" stroke-miterlimit="10" width="15.2" height="6.6"/>
	<rect x="1549.8" y="74.5" fill="none" stroke="#2196F3" stroke-width="2" stroke-miterlimit="10" width="9" height="36.5"/>
</g>
<g>
	<rect x="1595.7" y="110.9" fill="none" stroke="#2196F3" stroke-width="2" stroke-miterlimit="10" width="15.2" height="6.6"/>
	<rect x="1598.8" y="74.5" fill="none" stroke="#2196F3" stroke-width="2" stroke-miterlimit="10" width="9" height="36.5"/>
</g>
<g>
	<rect x="1011.3" y="16.6" fill="none" stroke="#2196F3" stroke-width="2" stroke-miterlimit="10" width="6.6" height="15.2"/>
	<rect x="1018" y="19.7" fill="none" stroke="#2196F3" stroke-width="2" stroke-miterlimit="10" width="104.1" height="9"/>
</g>
<g>
	<circle fill="none" stroke="#2196F3" stroke-width="2" stroke-miterlimit="10" cx="1269.8" cy="28.2" r="6"/>
	<path fill="none" stroke="#2196F3" stroke-width="2" stroke-miterlimit="10" d="M1266.7,1.9v14.9c-5.1,1.3-8.9,6-8.9,11.5
		c0,5.5,3.8,10.2,8.9,11.5v14.5h6.7V39.7c4.8-1.5,8.3-6,8.3-11.4s-3.5-9.8-8.3-11.4v-15L1266.7,1.9z"/>
</g>
<g>
	<circle fill="none" stroke="#2196F3" stroke-width="2" stroke-miterlimit="10" cx="1317.8" cy="28.2" r="6"/>
	<path fill="none" stroke="#2196F3" stroke-width="2" stroke-miterlimit="10" d="M1314.7,1.9v14.9c-5.1,1.3-8.9,6-8.9,11.5
		c0,5.5,3.8,10.2,8.9,11.5v14.5l6.7,0V39.7c4.8-1.5,8.3-6,8.3-11.4s-3.5-9.8-8.3-11.4v-15L1314.7,1.9z"/>
</g>
<g>
	<circle fill="none" stroke="#2196F3" stroke-width="2" stroke-miterlimit="10" cx="1365.8" cy="28.2" r="6"/>
	<path fill="none" stroke="#2196F3" stroke-width="2" stroke-miterlimit="10" d="M1362.7,1.9l0,14.9c-5.1,1.3-8.9,6-8.9,11.5
		c0,5.5,3.8,10.2,8.9,11.5v14.5h6.7V39.7c4.8-1.5,8.3-6,8.3-11.4s-3.5-9.8-8.3-11.4v-15L1362.7,1.9z"/>
</g>
<g>
	<circle fill="none" stroke="#2196F3" stroke-width="2" stroke-miterlimit="10" cx="1413.8" cy="28.2" r="6"/>
	<path fill="none" stroke="#2196F3" stroke-width="2" stroke-miterlimit="10" d="M1410.7,1.9v14.9c-5.1,1.3-8.9,6-8.9,11.5
		c0,5.5,3.8,10.2,8.9,11.5v14.5h6.7V39.7c4.8-1.5,8.3-6,8.3-11.4s-3.5-9.8-8.3-11.4v-15L1410.7,1.9z"/>
</g>
<g>
	<circle fill="none" stroke="#2196F3" stroke-width="2" stroke-miterlimit="10" cx="1461.8" cy="28.2" r="6"/>
	<path fill="none" stroke="#2196F3" stroke-width="2" stroke-miterlimit="10" d="M1458.7,1.9v14.9c-5.1,1.3-8.9,6-8.9,11.5
		c0,5.5,3.8,10.2,8.9,11.5v14.5h6.7V39.7c4.8-1.5,8.3-6,8.3-11.4s-3.5-9.8-8.3-11.4v-15L1458.7,1.9z"/>
</g>
<g>
	<circle fill="none" stroke="#2196F3" stroke-width="2" stroke-miterlimit="10" cx="1509.8" cy="28.2" r="6"/>
	<path fill="none" stroke="#2196F3" stroke-width="2" stroke-miterlimit="10" d="M1506.7,1.9v14.9c-5.1,1.3-8.9,6-8.9,11.5
		c0,5.5,3.8,10.2,8.9,11.5v14.5l6.7,0V39.7c4.8-1.5,8.3-6,8.3-11.4s-3.5-9.8-8.3-11.4v-15L1506.7,1.9z"/>
</g>
<g>
	<circle fill="none" stroke="#2196F3" stroke-width="2" stroke-miterlimit="10" cx="1557.8" cy="28.2" r="6"/>
	<path fill="none" stroke="#2196F3" stroke-width="2" stroke-miterlimit="10" d="M1554.7,1.9v14.9c-5.1,1.3-8.9,6-8.9,11.5
		c0,5.5,3.8,10.2,8.9,11.5v14.5h6.7V39.7c4.8-1.5,8.3-6,8.3-11.4s-3.5-9.8-8.3-11.4v-15L1554.7,1.9z"/>
</g>
<g>
	<circle fill="none" stroke="#2196F3" stroke-width="2" stroke-miterlimit="10" cx="1605.8" cy="28.2" r="6"/>
	<path fill="none" stroke="#2196F3" stroke-width="2" stroke-miterlimit="10" d="M1602.8,1.9v14.9c-5.1,1.3-8.9,6-8.9,11.5
		c0,5.5,3.8,10.2,8.9,11.5v14.5h6.7V39.7c4.8-1.5,8.3-6,8.3-11.4s-3.5-9.8-8.3-11.4v-15L1602.8,1.9z"/>
</g>
<circle fill="none" stroke="#2196F3" stroke-width="2" stroke-miterlimit="10" cx="711.6" cy="117.8" r="16.9"/>
<path fill="none" stroke="#2196F3" stroke-width="2" stroke-miterlimit="10" d="M747.3,159.2h-19.4c-2-7.1-8.5-12.3-16.3-12.3
	c-7.8,0-14.3,5.2-16.3,12.3H678v8.7h17.2c1.8,7.4,8.5,12.8,16.4,12.8c7.9,0,14.6-5.5,16.4-12.8h19.3V159.2z"/>
<circle fill="none" stroke="#2196F3" stroke-width="2" stroke-miterlimit="10" cx="711.6" cy="163.8" r="7.2"/>
</svg>
