<?xml version="1.0" encoding="utf-8"?>
<!-- Generator: Adobe Illustrator 18.1.1, SVG Export Plug-In . SVG Version: 6.00 Build 0)  -->
<svg version="1.1" id="Layer_1" xmlns="http://www.w3.org/2000/svg" xmlns:xlink="http://www.w3.org/1999/xlink" x="0px" y="0px"
	 viewBox="189 54.4 54.4 107.4" enable-background="new 189 54.4 54.4 107.4" xml:space="preserve">
<rect x="191.6" y="63.7" opacity="0.54" fill="#010101" enable-background="new    " width="48.9" height="3.3"/>
<g id="Ellipse_3_8_">
	<g>
		<circle fill="#616161" cx="216" cy="60.1" r="1.3"/>
	</g>
</g>
<defs>
	<filter id="Adobe_OpacityMaskFilter" filterUnits="userSpaceOnUse" x="215" y="59.1" width="2" height="2">
		<feColorMatrix  type="matrix" values="1 0 0 0 0  0 1 0 0 0  0 0 1 0 0  0 0 0 1 0"/>
	</filter>
</defs>
<mask maskUnits="userSpaceOnUse" x="215" y="59.1" width="2" height="2" id="Ellipse_3_9_">
	<g id="Ellipse_3Opacity_Mask_3_" filter="url(#Adobe_OpacityMaskFilter)">
		
			<image overflow="visible" enable-background="new    " width="3500" height="2483" id="Ellipse_3Opacity_Mask_4_" xlink:href="6B4213EA4F1145BE.jpg"  transform="matrix(6.542808e-02 0 0 6.542808e-02 101.7736 27.0438)">
		</image>
	</g>
</mask>
<g id="Ellipse_3_1_" mask="url(#Ellipse_3_9_)">
	<g>
		<circle fill="#A2A2A1" cx="216" cy="60.1" r="1"/>
	</g>
</g>
<g id="Ellipse_4">
	<g>
		<path fill="#959595" d="M215.2,59.2C215.1,59.2,215.1,59.2,215.2,59.2c-0.1,0.1-0.1,0.2,0,0.2C215.2,59.4,215.3,59.3,215.2,59.2
			C215.3,59.2,215.2,59.2,215.2,59.2z M215.5,59.2C215.5,59.2,215.4,59.2,215.5,59.2c-0.1,0.1-0.1,0.2,0,0.2
			C215.6,59.4,215.6,59.3,215.5,59.2C215.6,59.2,215.6,59.2,215.5,59.2z M215.9,59.2C215.8,59.2,215.8,59.2,215.9,59.2
			c-0.1,0.1-0.1,0.2,0,0.2C215.9,59.4,215.9,59.3,215.9,59.2C215.9,59.2,215.9,59.2,215.9,59.2z M215.9,59.5
			C215.8,59.5,215.8,59.6,215.9,59.5c-0.1,0.1-0.1,0.2,0,0.2C215.9,59.7,215.9,59.7,215.9,59.5C215.9,59.6,215.9,59.5,215.9,59.5z
			 M215.5,59.5C215.5,59.5,215.4,59.6,215.5,59.5c-0.1,0.1-0.1,0.2,0,0.2C215.6,59.7,215.6,59.7,215.5,59.5
			C215.6,59.6,215.6,59.5,215.5,59.5z M215.2,59.5C215.1,59.5,215.1,59.6,215.2,59.5c-0.1,0.1-0.1,0.2,0,0.2
			C215.2,59.7,215.3,59.7,215.2,59.5C215.3,59.6,215.2,59.5,215.2,59.5z M215.2,59.9C215.1,59.9,215.1,59.9,215.2,59.9
			c-0.1,0.1-0.1,0.2,0,0.2C215.2,60.1,215.3,60,215.2,59.9C215.3,59.9,215.2,59.9,215.2,59.9z M215.5,59.9
			C215.5,59.9,215.4,59.9,215.5,59.9c-0.1,0.1-0.1,0.2,0,0.2C215.6,60.1,215.6,60,215.5,59.9C215.6,59.9,215.6,59.9,215.5,59.9z
			 M215.9,59.9C215.8,59.9,215.8,59.9,215.9,59.9c-0.1,0.1-0.1,0.2,0,0.2C215.9,60.1,215.9,60,215.9,59.9
			C215.9,59.9,215.9,59.9,215.9,59.9z M216.2,59.2C216.2,59.2,216.1,59.2,216.2,59.2c-0.1,0.1-0.1,0.2,0,0.2S216.3,59.3,216.2,59.2
			C216.3,59.2,216.3,59.2,216.2,59.2z M216.6,59.2C216.5,59.2,216.5,59.2,216.6,59.2c-0.1,0.1-0.1,0.2,0,0.2S216.7,59.3,216.6,59.2
			C216.7,59.2,216.6,59.2,216.6,59.2z M216.9,59.3C217,59.3,217,59.3,216.9,59.3c0.1-0.1,0.1-0.2,0-0.2S216.8,59.2,216.9,59.3
			C216.8,59.3,216.9,59.3,216.9,59.3z M216.9,59.5C216.9,59.5,216.8,59.6,216.9,59.5c-0.1,0.1-0.1,0.2,0,0.2S217,59.7,216.9,59.5
			C217,59.6,217,59.5,216.9,59.5z M216.6,59.5C216.5,59.5,216.5,59.6,216.6,59.5c-0.1,0.1-0.1,0.2,0,0.2S216.7,59.7,216.6,59.5
			C216.7,59.6,216.6,59.5,216.6,59.5z M216.2,59.5C216.2,59.5,216.1,59.6,216.2,59.5c-0.1,0.1-0.1,0.2,0,0.2S216.3,59.7,216.2,59.5
			C216.3,59.6,216.3,59.5,216.2,59.5z M216.2,59.9C216.2,59.9,216.1,59.9,216.2,59.9c-0.1,0.1-0.1,0.2,0,0.2S216.3,60,216.2,59.9
			C216.3,59.9,216.3,59.9,216.2,59.9z M216.6,59.9C216.5,59.9,216.5,59.9,216.6,59.9c-0.1,0.1-0.1,0.2,0,0.2S216.7,60,216.6,59.9
			C216.7,59.9,216.6,59.9,216.6,59.9z M216.9,59.9C216.9,59.9,216.8,59.9,216.9,59.9c-0.1,0.1-0.1,0.2,0,0.2S217,60,216.9,59.9
			C217,59.9,217,59.9,216.9,59.9z M215.2,60.2C215.1,60.2,215.1,60.3,215.2,60.2c-0.1,0.1-0.1,0.2,0,0.2
			C215.2,60.4,215.3,60.4,215.2,60.2C215.3,60.3,215.2,60.2,215.2,60.2z M215.5,60.2C215.5,60.2,215.4,60.3,215.5,60.2
			c-0.1,0.1-0.1,0.2,0,0.2C215.6,60.4,215.6,60.4,215.5,60.2C215.6,60.3,215.6,60.2,215.5,60.2z M215.9,60.2
			C215.8,60.2,215.8,60.3,215.9,60.2c-0.1,0.1-0.1,0.2,0,0.2C215.9,60.4,215.9,60.4,215.9,60.2C215.9,60.3,215.9,60.2,215.9,60.2z
			 M215.9,60.6C215.8,60.6,215.8,60.6,215.9,60.6c-0.1,0.1-0.1,0.2,0,0.2C215.9,60.8,215.9,60.7,215.9,60.6
			C215.9,60.6,215.9,60.6,215.9,60.6z M215.5,60.6C215.5,60.6,215.4,60.6,215.5,60.6c-0.1,0.1-0.1,0.2,0,0.2
			C215.6,60.8,215.6,60.7,215.5,60.6C215.6,60.6,215.6,60.6,215.5,60.6z M215.2,60.6C215.1,60.6,215.1,60.6,215.2,60.6
			c-0.1,0.1-0.1,0.2,0,0.2C215.2,60.8,215.3,60.7,215.2,60.6C215.3,60.6,215.2,60.6,215.2,60.6z M215.2,60.9
			C215.1,60.9,215.1,61,215.2,60.9c-0.1,0.1-0.1,0.2,0,0.2C215.2,61.1,215.3,61.1,215.2,60.9C215.3,61,215.2,60.9,215.2,60.9z
			 M215.5,60.9C215.5,60.9,215.4,61,215.5,60.9c-0.1,0.1-0.1,0.2,0,0.2C215.6,61.1,215.6,61.1,215.5,60.9
			C215.6,61,215.6,60.9,215.5,60.9z M215.9,60.9C215.8,60.9,215.8,61,215.9,60.9c-0.1,0.1-0.1,0.2,0,0.2
			C215.9,61.1,215.9,61.1,215.9,60.9C215.9,61,215.9,60.9,215.9,60.9z M216.2,60.2C216.2,60.2,216.1,60.3,216.2,60.2
			c-0.1,0.1-0.1,0.2,0,0.2S216.3,60.4,216.2,60.2C216.3,60.3,216.3,60.2,216.2,60.2z M216.6,60.2C216.5,60.2,216.5,60.3,216.6,60.2
			c-0.1,0.1-0.1,0.2,0,0.2S216.7,60.4,216.6,60.2C216.7,60.3,216.6,60.2,216.6,60.2z M216.9,60.2C216.9,60.2,216.8,60.3,216.9,60.2
			c-0.1,0.1-0.1,0.2,0,0.2S217,60.4,216.9,60.2C217,60.3,217,60.2,216.9,60.2z M216.9,60.6C216.9,60.6,216.8,60.6,216.9,60.6
			c-0.1,0.1-0.1,0.2,0,0.2S217,60.7,216.9,60.6C217,60.6,217,60.6,216.9,60.6z M216.6,60.6C216.5,60.6,216.5,60.6,216.6,60.6
			c-0.1,0.1-0.1,0.2,0,0.2S216.7,60.7,216.6,60.6C216.7,60.6,216.6,60.6,216.6,60.6z M216.2,60.6C216.2,60.6,216.1,60.6,216.2,60.6
			c-0.1,0.1-0.1,0.2,0,0.2S216.3,60.7,216.2,60.6C216.3,60.6,216.3,60.6,216.2,60.6z M216.2,60.9C216.2,60.9,216.1,61,216.2,60.9
			c-0.1,0.1-0.1,0.2,0,0.2S216.3,61.1,216.2,60.9C216.3,61,216.3,60.9,216.2,60.9z M216.6,60.9C216.5,60.9,216.5,61,216.6,60.9
			c-0.1,0.1-0.1,0.2,0,0.2S216.7,61.1,216.6,60.9C216.7,61,216.6,60.9,216.6,60.9z M216.9,60.9C216.9,60.9,216.8,61,216.9,60.9
			c-0.1,0.1-0.1,0.2,0,0.2S217,61.1,216.9,60.9C217,61,217,60.9,216.9,60.9z"/>
	</g>
</g>
<g id="Rectangle_arrondi_1">
	<g>
		<path fill="#D0D1D1" d="M242.9,68.2h-0.2c-0.1,0-0.1,0.1-0.1,0.1v6.6c0,0.1,0.1,0.1,0.1,0.1h0.2c0.1,0,0.1-0.1,0.1-0.1v-6.6
			C243,68.3,243,68.2,242.9,68.2z"/>
	</g>
</g>
<g id="Rectangle_arrondi_2">
	<g>
		<path fill="#3F403F" d="M189.6,75.1h-0.5c-0.1,0-0.1,0.1-0.1,0.1v16.5c0,0.1,0.1,0.1,0.1,0.1h0.5c0.1,0,0.1-0.1,0.1-0.1V75.2
			C189.7,75.2,189.7,75.1,189.6,75.1z"/>
	</g>
</g>
<g id="Rectangle_arrondi_2_2_">
	<g>
		<path fill="#3F403F" d="M243.2,75.1h-0.5c-0.1,0-0.1,0-0.1,0.1v8.3c0,0,0.1,0.1,0.1,0.1h0.5c0.1,0,0.1,0,0.1-0.1v-8.3
			C243.4,75.1,243.3,75.1,243.2,75.1z"/>
	</g>
</g>
<path fill="#3F403F" d="M243.2,154.8l-0.1-95c0-1.3-0.8-2.8-2.8-3.5c-6.2-1.9-23.9-1.9-23.9-1.9h-0.1c0,0-17.8,0-23.9,1.9
	c-1.9,0.6-2.8,2.2-2.8,3.5l-0.1,95c0,0-0.8,4.9,6.6,6s20.3,1.1,20.3,1.1s13,0,20.3-1.1S243.2,154.8,243.2,154.8z M216,59.2
	c0.5,0,1,0.4,1,1c0,0.5-0.4,1-1,1s-1-0.4-1-1C215,59.6,215.5,59.2,216,59.2z M240.5,150.6h-48.9V63.7h48.9V150.6z"/>
<g id="Ellipse_3_2_">
	<g>
		<circle fill="#BDBDBD" cx="198.1" cy="60.1" r="0.7"/>
	</g>
</g>
<g id="Ellipse_3_3_">
	<g>
		<circle fill="#797979" cx="198.1" cy="60.1" r="0.4"/>
	</g>
</g>
<path fill="none" d="M233.6,64.5h-0.1v-0.1h-0.5v0.1h-0.1c-0.1,0-0.1,0.1-0.1,0.1V66c0,0.1,0.1,0.1,0.1,0.1h0.8
	c0.1,0,0.1-0.1,0.1-0.1v-1.4C233.7,64.6,233.7,64.5,233.6,64.5z"/>
<rect x="191.6" y="63.7" fill="none" width="48.9" height="87"/>
<path opacity="0.3" fill-rule="evenodd" clip-rule="evenodd" fill="#FFFFFF" enable-background="new    " d="M232.3,64.4v2h1.4v-2
	h-0.3v-0.3h-0.8v0.3H232.3z"/>
<rect x="232.3" y="65" fill-rule="evenodd" clip-rule="evenodd" fill="#FFFFFF" width="1.4" height="1.4"/>
<g>
	<path fill="#FFFFFF" d="M235.3,64.9L235.3,64.9l-0.2,0.1l0-0.1l0.3-0.2h0.2v1.4h-0.2V64.9z"/>
	<path fill="#FFFFFF" d="M236.8,64.9c0,0-0.1,0-0.1,0c-0.3,0-0.4,0.3-0.5,0.5h0c0.1-0.1,0.2-0.2,0.3-0.2c0.2,0,0.4,0.2,0.4,0.4
		c0,0.3-0.2,0.5-0.5,0.5c-0.3,0-0.5-0.2-0.5-0.6c0-0.3,0.1-0.5,0.2-0.6c0.1-0.1,0.3-0.2,0.4-0.2c0.1,0,0.1,0,0.1,0V64.9z
		 M236.7,65.7c0-0.2-0.1-0.3-0.3-0.3c-0.1,0-0.2,0.1-0.3,0.2c0,0,0,0,0,0.1c0,0.2,0.1,0.4,0.3,0.4C236.6,66,236.7,65.9,236.7,65.7z"
		/>
	<path fill="#FFFFFF" d="M237.1,65.3c0-0.1,0.1-0.1,0.1-0.1c0.1,0,0.1,0.1,0.1,0.1c0,0.1,0,0.1-0.1,0.1
		C237.1,65.4,237.1,65.3,237.1,65.3z M237.1,66c0-0.1,0.1-0.1,0.1-0.1c0.1,0,0.1,0.1,0.1,0.1c0,0.1,0,0.1-0.1,0.1
		C237.1,66.1,237.1,66.1,237.1,66z"/>
	<path fill="#FFFFFF" d="M237.6,65.9c0.1,0,0.2,0.1,0.3,0.1c0.2,0,0.3-0.2,0.3-0.3c0-0.2-0.2-0.3-0.4-0.3h-0.1v-0.1h0.1
		c0.1,0,0.3-0.1,0.3-0.2c0-0.1-0.1-0.2-0.2-0.2c-0.1,0-0.2,0-0.3,0.1l0-0.1c0.1-0.1,0.2-0.1,0.4-0.1c0.3,0,0.4,0.2,0.4,0.3
		c0,0.1-0.1,0.3-0.3,0.3v0c0.2,0,0.3,0.2,0.3,0.4c0,0.2-0.2,0.4-0.5,0.4c-0.2,0-0.3,0-0.4-0.1L237.6,65.9z"/>
	<path fill="#FFFFFF" d="M239.5,64.8v0.1l-0.6,1.2h-0.2l0.6-1.2v0h-0.7v-0.2H239.5z"/>
</g>
<g>
	<path fill="#FFFFFF" d="M229,65.3c-0.3,0-0.6,0.1-0.8,0.3l0.3,0.3c0.1-0.1,0.3-0.2,0.5-0.2c0.2,0,0.4,0.1,0.5,0.2
		c0.1-0.1,0.2-0.1,0.2-0.2C229.6,65.4,229.3,65.3,229,65.3z"/>
	<path fill="#FFFFFF" d="M228.7,66l0.4,0.4c0,0,0.1-0.2,0.4-0.4c-0.1-0.1-0.2-0.2-0.4-0.2C228.9,65.8,228.8,65.9,228.7,66z"/>
	<path opacity="0.3" fill="#FFFFFF" enable-background="new    " d="M229,64.6c0.5,0,1,0.2,1.3,0.6c0.1-0.1,0.3-0.2,0.4-0.4
		c-0.4-0.4-1-0.7-1.6-0.7c-0.6,0-1.2,0.3-1.6,0.7l0.3,0.3C228.1,64.8,228.5,64.6,229,64.6z"/>
	<path fill="#FFFFFF" d="M229,64.7c-0.5,0-0.9,0.2-1.2,0.5l0.3,0.3c0.2-0.2,0.5-0.4,0.9-0.4c0.3,0,0.7,0.2,0.9,0.4
		c0.1-0.1,0.2-0.2,0.3-0.3C229.9,64.9,229.5,64.7,229,64.7z"/>
</g>
</svg>
