<?xml version="1.0" encoding="utf-8"?>
<!-- Generator: Adobe Illustrator 18.1.1, SVG Export Plug-In . SVG Version: 6.00 Build 0)  -->
<svg version="1.1" id="Layer_1" xmlns="http://www.w3.org/2000/svg" xmlns:xlink="http://www.w3.org/1999/xlink" x="0px" y="0px"
	 viewBox="0 0 612 792" enable-background="new 0 0 612 792" xml:space="preserve">
<g id="Ellipse_3_8_">
	<g>
		<circle fill="#616161" cx="306.1" cy="220.4" r="4.9"/>
	</g>
</g>
<defs>
	<filter id="Adobe_OpacityMaskFilter" filterUnits="userSpaceOnUse" x="302.5" y="216.9" width="7.1" height="7.1">
		<feColorMatrix  type="matrix" values="1 0 0 0 0  0 1 0 0 0  0 0 1 0 0  0 0 0 1 0"/>
	</filter>
</defs>
<mask maskUnits="userSpaceOnUse" x="302.5" y="216.9" width="7.1" height="7.1" id="Ellipse_3_9_">
	<g id="Ellipse_3Opacity_Mask_3_" filter="url(#Adobe_OpacityMaskFilter)">
		
			<image overflow="visible" width="3500" height="2480" id="Ellipse_3Opacity_Mask_4_" xlink:href="6B4213EA4F1145BE.jpg"  transform="matrix(0.24 0 0 0.24 -113 99.4)">
		</image>
	</g>
</mask>
<g id="Ellipse_3_1_" mask="url(#Ellipse_3_9_)">
	<g>
		<circle fill="#A2A2A1" cx="306.1" cy="220.4" r="3.6"/>
	</g>
</g>
<g id="Ellipse_4">
	<g>
		<path fill="#959595" d="M303,217.1c-0.2,0-0.3,0.1-0.3,0.3s0.1,0.3,0.3,0.3c0.2,0,0.3-0.1,0.3-0.3S303.1,217.1,303,217.1z
			 M304.2,217.1c-0.2,0-0.3,0.1-0.3,0.3s0.1,0.3,0.3,0.3c0.2,0,0.3-0.1,0.3-0.3S304.4,217.1,304.2,217.1z M305.5,217.1
			c-0.2,0-0.3,0.1-0.3,0.3s0.1,0.3,0.3,0.3s0.3-0.1,0.3-0.3S305.7,217.1,305.5,217.1z M305.5,218.3c-0.2,0-0.3,0.1-0.3,0.3
			s0.1,0.3,0.3,0.3s0.3-0.1,0.3-0.3S305.7,218.3,305.5,218.3z M304.2,218.3c-0.2,0-0.3,0.1-0.3,0.3s0.1,0.3,0.3,0.3
			c0.2,0,0.3-0.1,0.3-0.3S304.4,218.3,304.2,218.3z M303,218.3c-0.2,0-0.3,0.1-0.3,0.3s0.1,0.3,0.3,0.3c0.2,0,0.3-0.1,0.3-0.3
			S303.1,218.3,303,218.3z M303,219.6c-0.2,0-0.3,0.1-0.3,0.3s0.1,0.3,0.3,0.3c0.2,0,0.3-0.1,0.3-0.3S303.1,219.6,303,219.6z
			 M304.2,219.6c-0.2,0-0.3,0.1-0.3,0.3s0.1,0.3,0.3,0.3c0.2,0,0.3-0.1,0.3-0.3S304.4,219.6,304.2,219.6z M305.5,219.6
			c-0.2,0-0.3,0.1-0.3,0.3s0.1,0.3,0.3,0.3s0.3-0.1,0.3-0.3S305.7,219.6,305.5,219.6z M306.8,217.1c-0.2,0-0.3,0.1-0.3,0.3
			s0.1,0.3,0.3,0.3c0.2,0,0.3-0.1,0.3-0.3S307,217.1,306.8,217.1z M308.1,217.1c-0.2,0-0.3,0.1-0.3,0.3s0.1,0.3,0.3,0.3
			c0.2,0,0.3-0.1,0.3-0.3S308.2,217.1,308.1,217.1z M309.4,217.6c0.2,0,0.3-0.1,0.3-0.3s-0.1-0.3-0.3-0.3s-0.3,0.1-0.3,0.3
			S309.2,217.6,309.4,217.6z M309.4,218.3c-0.2,0-0.3,0.1-0.3,0.3s0.1,0.3,0.3,0.3s0.3-0.1,0.3-0.3S309.5,218.3,309.4,218.3z
			 M308.1,218.3c-0.2,0-0.3,0.1-0.3,0.3s0.1,0.3,0.3,0.3c0.2,0,0.3-0.1,0.3-0.3S308.2,218.3,308.1,218.3z M306.8,218.3
			c-0.2,0-0.3,0.1-0.3,0.3s0.1,0.3,0.3,0.3c0.2,0,0.3-0.1,0.3-0.3S307,218.3,306.8,218.3z M306.8,219.6c-0.2,0-0.3,0.1-0.3,0.3
			s0.1,0.3,0.3,0.3c0.2,0,0.3-0.1,0.3-0.3S307,219.6,306.8,219.6z M308.1,219.6c-0.2,0-0.3,0.1-0.3,0.3s0.1,0.3,0.3,0.3
			c0.2,0,0.3-0.1,0.3-0.3S308.2,219.6,308.1,219.6z M309.4,219.6c-0.2,0-0.3,0.1-0.3,0.3s0.1,0.3,0.3,0.3s0.3-0.1,0.3-0.3
			S309.5,219.6,309.4,219.6z M303,220.9c-0.2,0-0.3,0.1-0.3,0.3c0,0.2,0.1,0.3,0.3,0.3c0.2,0,0.3-0.1,0.3-0.3
			C303.3,221,303.1,220.9,303,220.9z M304.2,220.9c-0.2,0-0.3,0.1-0.3,0.3c0,0.2,0.1,0.3,0.3,0.3c0.2,0,0.3-0.1,0.3-0.3
			C304.5,221,304.4,220.9,304.2,220.9z M305.5,220.9c-0.2,0-0.3,0.1-0.3,0.3c0,0.2,0.1,0.3,0.3,0.3s0.3-0.1,0.3-0.3
			C305.8,221,305.7,220.9,305.5,220.9z M305.5,222.2c-0.2,0-0.3,0.1-0.3,0.3c0,0.2,0.1,0.3,0.3,0.3s0.3-0.1,0.3-0.3
			C305.8,222.3,305.7,222.2,305.5,222.2z M304.2,222.2c-0.2,0-0.3,0.1-0.3,0.3c0,0.2,0.1,0.3,0.3,0.3c0.2,0,0.3-0.1,0.3-0.3
			C304.5,222.3,304.4,222.2,304.2,222.2z M303,222.2c-0.2,0-0.3,0.1-0.3,0.3c0,0.2,0.1,0.3,0.3,0.3c0.2,0,0.3-0.1,0.3-0.3
			C303.3,222.3,303.1,222.2,303,222.2z M303,223.4c-0.2,0-0.3,0.1-0.3,0.3c0,0.2,0.1,0.3,0.3,0.3c0.2,0,0.3-0.1,0.3-0.3
			C303.3,223.6,303.1,223.4,303,223.4z M304.2,223.4c-0.2,0-0.3,0.1-0.3,0.3c0,0.2,0.1,0.3,0.3,0.3c0.2,0,0.3-0.1,0.3-0.3
			C304.5,223.6,304.4,223.4,304.2,223.4z M305.5,223.4c-0.2,0-0.3,0.1-0.3,0.3c0,0.2,0.1,0.3,0.3,0.3s0.3-0.1,0.3-0.3
			C305.8,223.6,305.7,223.4,305.5,223.4z M306.8,220.9c-0.2,0-0.3,0.1-0.3,0.3c0,0.2,0.1,0.3,0.3,0.3c0.2,0,0.3-0.1,0.3-0.3
			C307.1,221,307,220.9,306.8,220.9z M308.1,220.9c-0.2,0-0.3,0.1-0.3,0.3c0,0.2,0.1,0.3,0.3,0.3c0.2,0,0.3-0.1,0.3-0.3
			C308.4,221,308.2,220.9,308.1,220.9z M309.4,220.9c-0.2,0-0.3,0.1-0.3,0.3c0,0.2,0.1,0.3,0.3,0.3s0.3-0.1,0.3-0.3
			C309.6,221,309.5,220.9,309.4,220.9z M309.4,222.2c-0.2,0-0.3,0.1-0.3,0.3c0,0.2,0.1,0.3,0.3,0.3s0.3-0.1,0.3-0.3
			C309.6,222.3,309.5,222.2,309.4,222.2z M308.1,222.2c-0.2,0-0.3,0.1-0.3,0.3c0,0.2,0.1,0.3,0.3,0.3c0.2,0,0.3-0.1,0.3-0.3
			C308.4,222.3,308.2,222.2,308.1,222.2z M306.8,222.2c-0.2,0-0.3,0.1-0.3,0.3c0,0.2,0.1,0.3,0.3,0.3c0.2,0,0.3-0.1,0.3-0.3
			C307.1,222.3,307,222.2,306.8,222.2z M306.8,223.4c-0.2,0-0.3,0.1-0.3,0.3c0,0.2,0.1,0.3,0.3,0.3c0.2,0,0.3-0.1,0.3-0.3
			C307.1,223.6,307,223.4,306.8,223.4z M308.1,223.4c-0.2,0-0.3,0.1-0.3,0.3c0,0.2,0.1,0.3,0.3,0.3c0.2,0,0.3-0.1,0.3-0.3
			C308.4,223.6,308.2,223.4,308.1,223.4z M309.4,223.4c-0.2,0-0.3,0.1-0.3,0.3c0,0.2,0.1,0.3,0.3,0.3s0.3-0.1,0.3-0.3
			C309.6,223.6,309.5,223.4,309.4,223.4z"/>
	</g>
</g>
<g id="Rectangle_arrondi_1">
	<g>
		<path fill="#D0D1D1" d="M404.6,250.1h-0.7c-0.3,0-0.5,0.2-0.5,0.5v24.1c0,0.3,0.2,0.5,0.5,0.5h0.7c0.3,0,0.5-0.2,0.5-0.5v-24.1
			C405.1,250.3,404.9,250.1,404.6,250.1z"/>
	</g>
</g>
<g id="Rectangle_arrondi_2">
	<g>
		<path fill="#3F403F" d="M209.1,275.4h-1.7c-0.3,0-0.5,0.2-0.5,0.5v60.5c0,0.3,0.2,0.5,0.5,0.5h1.7c0.3,0,0.5-0.2,0.5-0.5v-60.5
			C209.6,275.6,209.4,275.4,209.1,275.4z"/>
	</g>
</g>
<g id="Rectangle_arrondi_2_2_">
	<g>
		<path fill="#3F403F" d="M405.9,275.4h-1.7c-0.3,0-0.5,0.1-0.5,0.3v30.3c0,0.1,0.2,0.3,0.5,0.3h1.7c0.3,0,0.5-0.1,0.5-0.3v-30.3
			C406.5,275.5,406.2,275.4,405.9,275.4z"/>
	</g>
</g>
<path fill="#3F403F" d="M405.6,567.5l-0.4-348.2c0-4.7-3.1-10.4-10.3-12.7c-22.7-7.1-87.8-7.1-87.8-7.1h-0.5c0,0-65.1,0-87.8,7.1
	c-7.1,2.2-10.3,8-10.3,12.7l-0.4,348.2c0,0-2.9,18.1,24.1,22s74.5,3.9,74.5,3.9s47.5,0,74.5-3.9S405.6,567.5,405.6,567.5z
	 M306.1,216.9c2,0,3.6,1.6,3.6,3.6c0,2-1.6,3.6-3.6,3.6c-2,0-3.6-1.6-3.6-3.6C302.5,218.5,304.1,216.9,306.1,216.9z M395.9,552.3
	H216.5V233.5h179.4V552.3z"/>
<g id="Ellipse_3_2_">
	<g>
		<circle fill="#BDBDBD" cx="240.5" cy="220.4" r="2.4"/>
	</g>
</g>
<g id="Ellipse_3_3_">
	<g>
		<circle fill="#797979" cx="240.5" cy="220.4" r="1.5"/>
	</g>
</g>
<g enable-background="new    ">
	<g>
		<defs>
			<rect id="SVGID_1_" x="216.6" y="233.5" width="179.4" height="12"/>
		</defs>
		<clipPath id="SVGID_2_">
			<use xlink:href="#SVGID_1_"  overflow="visible"/>
		</clipPath>
		<g clip-path="url(#SVGID_2_)">
			<defs>
				<rect id="SVGID_3_" x="216.6" y="233.5" width="179.4" height="318.9"/>
			</defs>
			<clipPath id="SVGID_4_">
				<use xlink:href="#SVGID_3_"  overflow="visible"/>
			</clipPath>
			<g clip-path="url(#SVGID_4_)">
				<defs>
					<rect id="SVGID_5_" x="216.6" y="233.5" width="179.4" height="12"/>
				</defs>
				<clipPath id="SVGID_6_">
					<use xlink:href="#SVGID_5_"  overflow="visible"/>
				</clipPath>
				<g clip-path="url(#SVGID_6_)">
					<defs>
						<rect id="SVGID_7_" x="216.6" y="233.5" width="179.4" height="12"/>
					</defs>
					<clipPath id="SVGID_8_">
						<use xlink:href="#SVGID_7_"  overflow="visible"/>
					</clipPath>
					<rect x="214.1" y="231" opacity="0.54" clip-path="url(#SVGID_8_)" fill="#010101" width="184.4" height="16.9"/>
				</g>
			</g>
		</g>
		<g clip-path="url(#SVGID_2_)">
			<defs>
				<rect id="SVGID_9_" x="216.6" y="233.5" width="179.4" height="318.9"/>
			</defs>
			<clipPath id="SVGID_10_">
				<use xlink:href="#SVGID_9_"  overflow="visible"/>
			</clipPath>
			<g clip-path="url(#SVGID_10_)">
				<defs>
					<polygon id="SVGID_11_" points="341.1,236.5 345.1,242.5 349.1,236.5 					"/>
				</defs>
				<clipPath id="SVGID_12_">
					<use xlink:href="#SVGID_11_"  overflow="visible"/>
				</clipPath>
				<g clip-path="url(#SVGID_12_)">
					<defs>
						<rect id="SVGID_13_" x="216.6" y="233.5" width="179.4" height="12"/>
					</defs>
					<clipPath id="SVGID_14_">
						<use xlink:href="#SVGID_13_"  overflow="visible"/>
					</clipPath>
					<g clip-path="url(#SVGID_14_)" enable-background="new    ">
						<g>
							<defs>
								<rect id="SVGID_15_" x="341.1" y="236.5" width="8.5" height="6"/>
							</defs>
							<clipPath id="SVGID_16_">
								<use xlink:href="#SVGID_15_"  overflow="visible"/>
							</clipPath>
							<g clip-path="url(#SVGID_16_)">
								<defs>
									<path id="SVGID_17_" d="M345.1,247c-2.5,0-4.5-2-4.5-4.5s2-4.5,4.5-4.5s4.5,2,4.5,4.5S347.6,247,345.1,247z M345.1,236.5
										c-3.3,0-6,2.7-6,6s2.7,6,6,6s6-2.7,6-6S348.4,236.5,345.1,236.5z"/>
								</defs>
								<clipPath id="SVGID_18_">
									<use xlink:href="#SVGID_17_"  overflow="visible"/>
								</clipPath>
								<g clip-path="url(#SVGID_18_)">
									<defs>
										<rect id="SVGID_19_" x="341.1" y="236.5" width="8.5" height="6"/>
									</defs>
									<clipPath id="SVGID_20_">
										<use xlink:href="#SVGID_19_"  overflow="visible"/>
									</clipPath>
									<rect x="336.6" y="234" opacity="0.3" clip-path="url(#SVGID_20_)" fill="#FFFFFF" width="16.9" height="16.9"/>
								</g>
							</g>
							<g clip-path="url(#SVGID_16_)">
								<defs>
									<path id="SVGID_21_" d="M345.1,245.5c-1.6,0-3-1.3-3-3c0-1.6,1.3-3,3-3c1.6,0,3,1.3,3,3
										C348.1,244.1,346.8,245.5,345.1,245.5z M345.1,238c-2.5,0-4.5,2-4.5,4.5s2,4.5,4.5,4.5s4.5-2,4.5-4.5S347.6,238,345.1,238z
										"/>
								</defs>
								<clipPath id="SVGID_22_">
									<use xlink:href="#SVGID_21_"  overflow="visible"/>
								</clipPath>
								<g clip-path="url(#SVGID_22_)">
									<defs>
										<rect id="SVGID_23_" x="341.1" y="236.5" width="8.5" height="6"/>
									</defs>
									<clipPath id="SVGID_24_">
										<use xlink:href="#SVGID_23_"  overflow="visible"/>
									</clipPath>
									<rect x="338.1" y="235.5" opacity="0.9" clip-path="url(#SVGID_24_)" fill="#FFFFFF" width="14" height="14"/>
								</g>
							</g>
							<g clip-path="url(#SVGID_16_)">
								<defs>
									<path id="SVGID_25_" d="M345.1,244c-0.8,0-1.5-0.6-1.5-1.5c0-0.8,0.6-1.5,1.5-1.5c0.8,0,1.5,0.6,1.5,1.5
										C346.6,243.3,346,244,345.1,244z M345.1,239.5c-1.6,0-3,1.3-3,3c0,1.6,1.3,3,3,3c1.6,0,3-1.3,3-3
										C348.1,240.8,346.8,239.5,345.1,239.5z"/>
								</defs>
								<clipPath id="SVGID_26_">
									<use xlink:href="#SVGID_25_"  overflow="visible"/>
								</clipPath>
								<g clip-path="url(#SVGID_26_)">
									<defs>
										<rect id="SVGID_27_" x="341.1" y="236.5" width="8.5" height="6"/>
									</defs>
									<clipPath id="SVGID_28_">
										<use xlink:href="#SVGID_27_"  overflow="visible"/>
									</clipPath>
									<rect x="339.6" y="237" opacity="0.9" clip-path="url(#SVGID_28_)" fill="#FFFFFF" width="11" height="11"/>
								</g>
							</g>
							<g clip-path="url(#SVGID_16_)">
								<defs>
									<circle id="SVGID_29_" cx="345.1" cy="242.5" r="1.5"/>
								</defs>
								<clipPath id="SVGID_30_">
									<use xlink:href="#SVGID_29_"  overflow="visible"/>
								</clipPath>
								<g clip-path="url(#SVGID_30_)">
									<defs>
										<rect id="SVGID_31_" x="341.1" y="236.5" width="8.5" height="6"/>
									</defs>
									<clipPath id="SVGID_32_">
										<use xlink:href="#SVGID_31_"  overflow="visible"/>
									</clipPath>
									<rect x="341.1" y="238.5" opacity="0.9" clip-path="url(#SVGID_32_)" fill="#FFFFFF" width="8" height="8"/>
								</g>
							</g>
						</g>
					</g>
				</g>
			</g>
		</g>
		<g clip-path="url(#SVGID_2_)">
			<defs>
				<rect id="SVGID_33_" x="216.6" y="233.5" width="179.4" height="318.9"/>
			</defs>
			<clipPath id="SVGID_34_">
				<use xlink:href="#SVGID_33_"  overflow="visible"/>
			</clipPath>
			<g clip-path="url(#SVGID_34_)">
				<defs>
					<polygon id="SVGID_35_" points="360.1,242.5 360.1,236.5 354.1,242.5 					"/>
				</defs>
				<clipPath id="SVGID_36_">
					<use xlink:href="#SVGID_35_"  overflow="visible"/>
				</clipPath>
				<g clip-path="url(#SVGID_36_)">
					<defs>
						<rect id="SVGID_37_" x="216.6" y="233.5" width="179.4" height="12"/>
					</defs>
					<clipPath id="SVGID_38_">
						<use xlink:href="#SVGID_37_"  overflow="visible"/>
					</clipPath>
					<g clip-path="url(#SVGID_38_)" enable-background="new    ">
						<g>
							<defs>
								<rect id="SVGID_39_" x="354.1" y="236.5" width="6" height="6"/>
							</defs>
							<clipPath id="SVGID_40_">
								<use xlink:href="#SVGID_39_"  overflow="visible"/>
							</clipPath>
							<g clip-path="url(#SVGID_40_)">
								<defs>
									<rect id="SVGID_41_" x="358.6" y="236.5" width="1.5" height="6"/>
								</defs>
								<clipPath id="SVGID_42_">
									<use xlink:href="#SVGID_41_"  overflow="visible"/>
								</clipPath>
								<g clip-path="url(#SVGID_42_)">
									<defs>
										<rect id="SVGID_43_" x="353.6" y="236.5" width="6.5" height="6"/>
									</defs>
									<clipPath id="SVGID_44_">
										<use xlink:href="#SVGID_43_"  overflow="visible"/>
									</clipPath>
									<rect x="356.1" y="234" opacity="0.3" clip-path="url(#SVGID_44_)" fill="#FFFFFF" width="6.5" height="11"/>
								</g>
							</g>
							<g clip-path="url(#SVGID_40_)">
								<defs>
									<rect id="SVGID_45_" x="357.1" y="236.5" width="1.5" height="6"/>
								</defs>
								<clipPath id="SVGID_46_">
									<use xlink:href="#SVGID_45_"  overflow="visible"/>
								</clipPath>
								<g clip-path="url(#SVGID_46_)">
									<defs>
										<rect id="SVGID_47_" x="353.6" y="236.5" width="6.5" height="6"/>
									</defs>
									<clipPath id="SVGID_48_">
										<use xlink:href="#SVGID_47_"  overflow="visible"/>
									</clipPath>
									<rect x="354.6" y="234" opacity="0.3" clip-path="url(#SVGID_48_)" fill="#FFFFFF" width="6.5" height="11"/>
								</g>
							</g>
							<g clip-path="url(#SVGID_40_)">
								<defs>
									<rect id="SVGID_49_" x="355.6" y="236.5" width="1.5" height="6"/>
								</defs>
								<clipPath id="SVGID_50_">
									<use xlink:href="#SVGID_49_"  overflow="visible"/>
								</clipPath>
								<g clip-path="url(#SVGID_50_)">
									<defs>
										<rect id="SVGID_51_" x="353.6" y="236.5" width="6.5" height="6"/>
									</defs>
									<clipPath id="SVGID_52_">
										<use xlink:href="#SVGID_51_"  overflow="visible"/>
									</clipPath>
									<rect x="353.1" y="234" opacity="0.9" clip-path="url(#SVGID_52_)" fill="#FFFFFF" width="6.5" height="11"/>
								</g>
							</g>
							<g clip-path="url(#SVGID_40_)">
								<defs>
									<rect id="SVGID_53_" x="354.1" y="236.5" width="1.5" height="6"/>
								</defs>
								<clipPath id="SVGID_54_">
									<use xlink:href="#SVGID_53_"  overflow="visible"/>
								</clipPath>
								<g clip-path="url(#SVGID_54_)">
									<defs>
										<rect id="SVGID_55_" x="353.6" y="236.5" width="6.5" height="6"/>
									</defs>
									<clipPath id="SVGID_56_">
										<use xlink:href="#SVGID_55_"  overflow="visible"/>
									</clipPath>
									<rect x="351.6" y="234" opacity="0.9" clip-path="url(#SVGID_56_)" fill="#FFFFFF" width="6.5" height="11"/>
								</g>
							</g>
						</g>
					</g>
				</g>
			</g>
		</g>
		<g clip-path="url(#SVGID_2_)">
			<defs>
				<rect id="SVGID_57_" x="216.6" y="233.5" width="179.4" height="318.9"/>
			</defs>
			<clipPath id="SVGID_58_">
				<use xlink:href="#SVGID_57_"  overflow="visible"/>
			</clipPath>
			<g clip-path="url(#SVGID_58_)">
				<defs>
					<path id="SVGID_59_" d="M370.5,236.5H370V236h-2v0.5h-0.5c-0.3,0-0.5,0.2-0.5,0.5v5c0,0.3,0.2,0.5,0.5,0.5h3
						c0.3,0,0.5-0.2,0.5-0.5v-5C371,236.7,370.8,236.5,370.5,236.5z"/>
				</defs>
				<clipPath id="SVGID_60_">
					<use xlink:href="#SVGID_59_"  overflow="visible"/>
				</clipPath>
				<g clip-path="url(#SVGID_60_)">
					<defs>
						<rect id="SVGID_61_" x="216.6" y="233.5" width="179.4" height="12"/>
					</defs>
					<clipPath id="SVGID_62_">
						<use xlink:href="#SVGID_61_"  overflow="visible"/>
					</clipPath>
					<g clip-path="url(#SVGID_62_)" enable-background="new    ">
						<g>
							<defs>
								<rect id="SVGID_63_" x="367" y="236" width="4" height="6.5"/>
							</defs>
							<clipPath id="SVGID_64_">
								<use xlink:href="#SVGID_63_"  overflow="visible"/>
							</clipPath>
							<g clip-path="url(#SVGID_64_)">
								<defs>
									<rect id="SVGID_65_" x="367" y="241" width="4" height="1.5"/>
								</defs>
								<clipPath id="SVGID_66_">
									<use xlink:href="#SVGID_65_"  overflow="visible"/>
								</clipPath>
								<g clip-path="url(#SVGID_66_)">
									<defs>
										<rect id="SVGID_67_" x="366.5" y="236" width="4.5" height="6.5"/>
									</defs>
									<clipPath id="SVGID_68_">
										<use xlink:href="#SVGID_67_"  overflow="visible"/>
									</clipPath>
									<rect x="364.5" y="238.5" opacity="0.9" clip-path="url(#SVGID_68_)" fill="#FFFFFF" width="9" height="6.5"/>
								</g>
							</g>
							<g clip-path="url(#SVGID_64_)">
								<defs>
									<rect id="SVGID_69_" x="367" y="239.5" width="4" height="1.5"/>
								</defs>
								<clipPath id="SVGID_70_">
									<use xlink:href="#SVGID_69_"  overflow="visible"/>
								</clipPath>
								<g clip-path="url(#SVGID_70_)">
									<defs>
										<rect id="SVGID_71_" x="366.5" y="236" width="4.5" height="6.5"/>
									</defs>
									<clipPath id="SVGID_72_">
										<use xlink:href="#SVGID_71_"  overflow="visible"/>
									</clipPath>
									<rect x="364.5" y="237" opacity="0.9" clip-path="url(#SVGID_72_)" fill="#FFFFFF" width="9" height="6.5"/>
								</g>
							</g>
							<g clip-path="url(#SVGID_64_)">
								<defs>
									<rect id="SVGID_73_" x="367" y="238" width="4" height="1.5"/>
								</defs>
								<clipPath id="SVGID_74_">
									<use xlink:href="#SVGID_73_"  overflow="visible"/>
								</clipPath>
								<g clip-path="url(#SVGID_74_)">
									<defs>
										<rect id="SVGID_75_" x="366.5" y="236" width="4.5" height="6.5"/>
									</defs>
									<clipPath id="SVGID_76_">
										<use xlink:href="#SVGID_75_"  overflow="visible"/>
									</clipPath>
									<rect x="364.5" y="235.5" opacity="0.3" clip-path="url(#SVGID_76_)" fill="#FFFFFF" width="9" height="6.5"/>
								</g>
							</g>
							<g clip-path="url(#SVGID_64_)">
								<defs>
									<rect id="SVGID_77_" x="367" y="236.5" width="4" height="1.5"/>
								</defs>
								<clipPath id="SVGID_78_">
									<use xlink:href="#SVGID_77_"  overflow="visible"/>
								</clipPath>
								<g clip-path="url(#SVGID_78_)">
									<defs>
										<rect id="SVGID_79_" x="366.5" y="236" width="4.5" height="6.5"/>
									</defs>
									<clipPath id="SVGID_80_">
										<use xlink:href="#SVGID_79_"  overflow="visible"/>
									</clipPath>
									<rect x="364.5" y="234" opacity="0.3" clip-path="url(#SVGID_80_)" fill="#FFFFFF" width="9" height="6.5"/>
								</g>
							</g>
							<g clip-path="url(#SVGID_64_)">
								<defs>
									<rect id="SVGID_81_" x="368" y="236" width="2" height="0.5"/>
								</defs>
								<clipPath id="SVGID_82_">
									<use xlink:href="#SVGID_81_"  overflow="visible"/>
								</clipPath>
								<g clip-path="url(#SVGID_82_)">
									<defs>
										<rect id="SVGID_83_" x="366.5" y="236" width="4.5" height="6.5"/>
									</defs>
									<clipPath id="SVGID_84_">
										<use xlink:href="#SVGID_83_"  overflow="visible"/>
									</clipPath>
									<rect x="365.5" y="233.5" opacity="0.3" clip-path="url(#SVGID_84_)" fill="#FFFFFF" width="7" height="5.5"/>
								</g>
							</g>
						</g>
					</g>
				</g>
			</g>
		</g>
		<g clip-path="url(#SVGID_2_)">
			<defs>
				<rect id="SVGID_85_" x="216.6" y="233.5" width="179.4" height="318.9"/>
			</defs>
			<clipPath id="SVGID_86_">
				<use xlink:href="#SVGID_85_"  overflow="visible"/>
			</clipPath>
			<g clip-path="url(#SVGID_86_)">
				<defs>
					<rect id="SVGID_87_" x="216.6" y="233.5" width="179.4" height="12"/>
				</defs>
				<clipPath id="SVGID_88_">
					<use xlink:href="#SVGID_87_"  overflow="visible"/>
				</clipPath>
				<g opacity="0.9" clip-path="url(#SVGID_88_)" enable-background="new    ">
					<g>
						<defs>
							<rect id="SVGID_89_" x="375.5" y="236" width="16.9" height="7.5"/>
						</defs>
						<clipPath id="SVGID_90_">
							<use xlink:href="#SVGID_89_"  overflow="visible"/>
						</clipPath>
						<g clip-path="url(#SVGID_90_)">
							<defs>
								<rect id="SVGID_91_" x="375.5" y="236" width="16.9" height="7.5"/>
							</defs>
							<clipPath id="SVGID_92_">
								<use xlink:href="#SVGID_91_"  overflow="visible"/>
							</clipPath>
							<g clip-path="url(#SVGID_92_)" enable-background="new    ">
								<g>
									<defs>
										<rect id="SVGID_93_" x="375.5" y="236" width="16.9" height="7.5"/>
									</defs>
									<clipPath id="SVGID_94_">
										<use xlink:href="#SVGID_93_"  overflow="visible"/>
									</clipPath>
									<g clip-path="url(#SVGID_94_)">
										<defs>
											<rect id="SVGID_95_" x="375.5" y="236" width="16.9" height="7.5"/>
										</defs>
										<clipPath id="SVGID_96_">
											<use xlink:href="#SVGID_95_"  overflow="visible"/>
										</clipPath>
										<g clip-path="url(#SVGID_96_)">
											<text transform="matrix(1 0 0 1 359.4023 241.9844)" font-family="'Roboto-Regular'" font-size="6.478">!&quot;#$%</text>
										</g>
									</g>
								</g>
							</g>
						</g>
					</g>
				</g>
			</g>
		</g>
	</g>
</g>
</svg>
