<?xml version="1.0" encoding="utf-8"?>
<!-- Generator: Adobe Illustrator 18.1.1, SVG Export Plug-In . SVG Version: 6.00 Build 0)  -->
<svg version="1.1" id="Layer_1" xmlns="http://www.w3.org/2000/svg" xmlns:xlink="http://www.w3.org/1999/xlink" x="0px" y="0px"
	 viewBox="0 0 545.8 129" enable-background="new 0 0 545.8 129" xml:space="preserve">
<path fill="#FFFFFF" d="M217.4,91.5c-0.4,0-0.7,0-1.1,0.1l0,0l-0.7,0.2c-0.8,0.2-1.5,0.3-2.1,0.3c-4.8,0-7-2.8-7-8.7V55.3h10.8
	l0.8,0v-0.1c3-0.4,5.3-3,5.3-6.1c0-3.1-2.3-5.7-5.3-6.1l-11.7-0.1V25.8l0-0.8h-0.1c-0.5-3.3-3.4-5.8-6.8-5.8c-3.5,0-6.3,2.5-6.8,5.9
	h-0.1v17.9h-5.3c-3.4,0-6.2,2.8-6.2,6.2c0,3.4,2.8,6.2,6.2,6.2h5.3v27.2c0,13.7,7.5,21.9,20.1,21.9c1.6,0,3.2-0.2,4.8-0.5
	c3.4-0.1,6.1-2.8,6.1-6.2C223.6,94.3,220.8,91.5,217.4,91.5z"/>
<path fill="#FFFFFF" d="M450.5,42c-9,0-16.4,3-21.8,9c-5.3,5.9-8,13.4-8,22.2s2.7,16.2,8,22.2c5.4,6,12.7,9,21.8,9
	c9,0,16.3-3,21.7-9c5.4-6,8.2-13.5,8.2-22.2c0-8.7-2.7-16.2-8.2-22.2C466.8,45,459.5,42,450.5,42z M439.3,59.9
	c2.8-3.7,6.6-5.5,11.3-5.5c4.7,0,8.5,1.8,11.1,5.5c2.8,3.7,4.2,8,4.2,13.3c0,5.3-1.4,9.8-4.2,13.4c-2.6,3.6-6.3,5.4-11.1,5.4
	c-4.8,0-8.5-1.8-11.2-5.4c-2.7-3.7-4-8.2-4-13.4C435.2,68,436.5,63.7,439.3,59.9z"/>
<path fill="#FFFFFF" d="M384.3,42c-6.3,0-12.1,2.8-15.2,6.1l0-0.9H369c-0.5-3.4-3.3-5.9-6.8-5.9c-3.7,0-6.8,3-6.9,6.8l0,74.1l0,0.8
	h0.1c0.4,3.4,3.3,6,6.9,6c3.5,0,6.3-2.5,6.8-5.9h0.1V98.4c3.6,3.7,9.2,6,14.9,6c17.4,0,27.4-11.4,27.4-31.2
	C411.4,53.4,401.5,42,384.3,42z M396.9,73.2c0,5.7-1.4,10.4-4.2,13.8c-2.8,3.3-6.2,4.9-10.6,4.9c-4.4,0-7.8-1.6-10.6-4.9
	c-2.8-3.5-4.2-8.1-4.2-13.9c0-5.8,1.4-10.4,4.2-13.7c2.7-3.4,6.2-5,10.6-5c4.4,0,7.8,1.7,10.6,5.1C395.5,62.8,396.9,67.4,396.9,73.2
	z"/>
<path fill="#FFFFFF" d="M276.2,42.7l0-0.1l-0.8-0.2c-1.4-0.3-2.8-0.4-4.3-0.4c-6.3,0-12.6,3.4-16.6,8.8l0-3.6h-0.1
	c-0.5-3.3-3.4-5.9-6.8-5.9c-3.5,0-6.3,2.5-6.8,5.9h-0.1v51.1c0,0,0,0.1,0,0.1l0,0.7h0c0.4,3.4,3.3,6.1,6.9,6.1c3.8,0,6.8-3,6.9-6.8
	l0-17.5c0-8.7,1.5-15.1,4.5-19.6c3-4.5,6.4-6.8,10.5-6.8c1,0,2,0.1,3,0.3c0.5,0.1,1.1,0.2,1.5,0.2c3.5,0,6.3-2.8,6.3-6.3
	C280.4,46,278.6,43.6,276.2,42.7z"/>
<path fill="#FFFFFF" d="M335.5,41.4c-2.5,0-4.9,1.5-6.1,3.7l-0.1,0l-12.1,35.8l-11.9-33.9c-0.6-3.2-3.5-5.5-6.7-5.5
	c-3.8,0-6.9,3.1-6.9,6.9c0,0.5,0.1,0.9,0.2,1.4l-0.1,0l18.5,50.1l-7.2,20.2l-0.1,0.2c-0.3,0.8-0.5,1.6-0.5,2.4
	c0,3.6,2.9,6.6,6.6,6.6c2.5,0,4.7-1.4,5.8-3.6l0.1,0L341.8,51c0-0.1,0.1-0.2,0.1-0.3l-0.8-0.3l0,0l0.9,0l0.3-0.8l-0.1,0
	c0.1-0.5,0.2-0.9,0.2-1.4C342.4,44.4,339.3,41.4,335.5,41.4z"/>
<path fill="#FFFFFF" d="M538.8,17.4c-3.6,0-6.6,2.8-6.9,6.4l0,24.3c-1.4-1.3-3.2-2.5-5.6-3.7c-3.4-1.6-6.4-2.4-9.4-2.4
	c-17.4,0-27.4,11.4-27.4,31.2c0,19.8,9.9,31.2,27.1,31.2c6.3,0,12.1-2.8,15.2-6.1c0,0,0,0,0,0l0,0.7h0c0.4,3.4,3.3,6.1,6.9,6.1
	c3.8,0,6.9-3.1,6.9-6.9v-74C545.8,20.5,542.7,17.4,538.8,17.4z M532.6,73.2c0,5.7-1.4,10.4-4,13.8c-2.7,3.3-6,4.9-10.2,4.9
	c-4.2,0-7.6-1.6-10.2-4.9c-2.7-3.5-4-8.1-4-13.9c0-5.8,1.4-10.4,4-13.7c2.6-3.4,6-5,10.2-5c4.2,0,7.6,1.7,10.2,5.1
	C531.3,62.8,532.6,67.4,532.6,73.2z"/>
<g>
	<path opacity="0.5" fill="#FFFFFF" d="M61.9,20.7c-13.7-2.8-27.3-5.5-41-8.3c0.5-2.3,0.9-4.6,1.4-6.8c0.8-3.8,4.4-6.2,8.2-5.4
		C39.6,2,48.7,3.8,57.8,5.7c3.8,0.8,6.2,4.4,5.4,8.2C62.8,16.2,62.3,18.4,61.9,20.7z"/>
	<circle fill="#FFFFFF" cx="59.7" cy="66.8" r="17.7"/>
	<path fill="#FFFFFF" d="M116.5,31.8c-31.9-6.4-63.7-12.9-95.6-19.3C7.8,9.8-3.3,22.3,0.9,35C8.6,58,16.3,81,24.1,103.9
		c3.6,10.8,12.7,18.8,23.8,21c11.1,2.3,22.6-1.6,30.1-10.1c16-18.2,32.1-36.3,48.1-54.5C135,50.3,129.6,34.4,116.5,31.8z M83.4,87.7
		c-11.6,13.1-31.6,14.3-44.7,2.8c-13.1-11.6-14.3-31.6-2.8-44.7C47.5,32.7,67.5,31.5,80.6,43S94.9,74.6,83.4,87.7z M113.5,55.8
		c-3.8,0.2-7.1-2.7-7.4-6.5c-0.2-3.8,2.7-7.1,6.5-7.4c3.8-0.2,7.1,2.7,7.4,6.5C120.2,52.2,117.3,55.6,113.5,55.8z"/>
</g>
</svg>
