<?xml version="1.0" encoding="utf-8"?>
<!-- Generator: Adobe Illustrator 18.1.1, SVG Export Plug-In . SVG Version: 6.00 Build 0)  -->
<svg version="1.1" id="Layer_1" xmlns="http://www.w3.org/2000/svg" xmlns:xlink="http://www.w3.org/1999/xlink" x="0px" y="0px"
	 viewBox="0 0 145.3 147.3" enable-background="new 0 0 145.3 147.3" xml:space="preserve">
<g>
	
		<path fill="#55CBFF" stroke="#2196F3" stroke-width="5" stroke-linecap="round" stroke-linejoin="round" stroke-miterlimit="10" d="
		M118.7,56.3v45.3H95.9l9.4-37.8"/>
	
		<polygon fill="#55CBFF" stroke="#2196F3" stroke-width="5" stroke-linecap="round" stroke-linejoin="round" stroke-miterlimit="10" points="
		57.5,103.2 26.7,103.2 26.7,57.9 34.7,43.6 57.5,66.9 	"/>
	
		<path fill="#FFFFFF" stroke="#2196F3" stroke-width="5" stroke-linecap="round" stroke-linejoin="round" stroke-miterlimit="10" d="
		M49.1,92.9c0,0-22.5,15.7-22.5,51.5c22.5,0,78.3,0,92,0c0-47.5-26.6-51.5-26.6-51.5"/>
	
		<polyline fill="#FFFFFF" stroke="#2196F3" stroke-width="5" stroke-linecap="round" stroke-linejoin="round" stroke-miterlimit="10" points="
		57.5,101.6 77.6,125.7 92.9,104 	"/>
	<path fill="#FFFFFF" stroke="#2196F3" stroke-width="5" stroke-miterlimit="10" d="M118.7,55.3c0,28.9-18.4,53.4-41,53.4
		s-41-24.5-41-53.4S55,2.9,77.7,2.9S118.7,26.4,118.7,55.3z"/>
	<path fill="none" stroke="#2196F3" stroke-width="5" stroke-miterlimit="10" d="M71.8,54.6c0,7-5.7,12.7-12.7,12.7
		s-12.7-5.7-12.7-12.7c0-2.5,0.7-4.7,1.9-6.7c2.2-3.6,6.2-6,10.8-6C66.2,41.9,71.8,47.6,71.8,54.6z"/>
	<circle fill="none" stroke="#2196F3" stroke-width="5" stroke-miterlimit="10" cx="95.9" cy="54.6" r="12.7"/>
	<line fill="none" stroke="#2196F3" stroke-width="5" stroke-miterlimit="10" x1="71.8" y1="54.6" x2="83.3" y2="54.6"/>
	
		<path fill="#FFFFFF" stroke="#2196F3" stroke-width="5" stroke-linecap="round" stroke-linejoin="round" stroke-miterlimit="10" d="
		M67.2,86.4c0,0,11.4,5.6,21.6-1.8"/>
	<path fill="#55CBFF" stroke="#2196F3" stroke-width="5" stroke-miterlimit="10" d="M95.9,10.4c0,0-23.7,44.4-55.5,47.4l0,0
		c0,0-0.1,0.2-3.3,0.2l0-0.1l-10.5,0.1c0-56,51-55,51-55s13.6,1.6,19.8,6.5c0,0,1.5,39.2,21.2,46.8c0,0,0-29.4-21-46.6"/>
	
		<path fill="#FFFFFF" stroke="#2196F3" stroke-width="5" stroke-linecap="round" stroke-linejoin="round" stroke-miterlimit="10" d="
		M77.6,65.3c0,0,1.5,4,5.8,7.3c-2.1,6.3-10.1,2.8-10.1,2.8"/>
</g>
</svg>
