<?xml version="1.0" encoding="utf-8"?>
<!-- Generator: Adobe Illustrator 18.1.1, SVG Export Plug-In . SVG Version: 6.00 Build 0)  -->
<svg version="1.1" id="Layer_1" xmlns="http://www.w3.org/2000/svg" xmlns:xlink="http://www.w3.org/1999/xlink" x="0px" y="0px"
	 viewBox="0 0 145.3 147.3" enable-background="new 0 0 145.3 147.3" xml:space="preserve">
<g>
	
		<path fill="#FFFFFF" stroke="#2196F3" stroke-width="5" stroke-linecap="round" stroke-linejoin="round" stroke-miterlimit="10" d="
		M23.4,144.6v-27.5c0-10.3,8.5-18.7,19-18.7h69.4c10.5,0,19,8.4,19,18.7v27.5C130.9,144.6,23.4,145.6,23.4,144.6z"/>
	
		<polyline fill="#55CBFF" stroke="#2196F3" stroke-width="5" stroke-linecap="round" stroke-linejoin="round" stroke-miterlimit="10" points="
		76.1,104.1 83.4,103.1 88.9,116.7 103.6,98.4 103.6,84.6 47.8,84.6 47.2,98.4 63.7,116.7 67.9,102.8 	"/>
	
		<line fill="#78C5F9" stroke="#2196F3" stroke-width="5" stroke-linecap="round" stroke-linejoin="round" stroke-miterlimit="10" x1="76.1" y1="145" x2="76.1" y2="104.1"/>
	<ellipse fill="#FFFFFF" stroke="#2196F3" stroke-width="5" stroke-miterlimit="10" cx="76.2" cy="57" rx="41" ry="47.1"/>
	<line fill="none" stroke="#2196F3" stroke-width="5" stroke-miterlimit="10" x1="70.3" y1="52.8" x2="81.8" y2="52.8"/>
	
		<path fill="#FFFFFF" stroke="#2196F3" stroke-width="5" stroke-linecap="round" stroke-linejoin="round" stroke-miterlimit="10" d="
		M103.4,19.5l13.8,31.7C117.1,51.2,131,21.9,103.4,19.5z"/>
	
		<path fill="#FFFFFF" stroke="#2196F3" stroke-width="5" stroke-linecap="round" stroke-linejoin="round" stroke-miterlimit="10" d="
		M51.5,17.2l-17,39.1C34.6,56.3,21.3,19.1,51.5,17.2z"/>
	
		<path fill="#FFFFFF" stroke="#2196F3" stroke-width="5" stroke-linecap="round" stroke-linejoin="round" stroke-miterlimit="10" d="
		M101.6,18.4c0,0-18.8-10.6-39.6,3.5"/>
	<path fill="none" stroke="#2196F3" stroke-width="5" stroke-linecap="round" stroke-linejoin="round" stroke-miterlimit="10" d="
		M103.4,20.9c0,0-15.1-22.6-41.7-17.6"/>
	
		<path fill="#FFFFFF" stroke="#2196F3" stroke-width="5" stroke-linecap="round" stroke-linejoin="round" stroke-miterlimit="10" d="
		M69.6,92c0,0,18.3,1,27.8-14.4"/>
	
		<path fill="#FFFFFF" stroke="#2196F3" stroke-width="5" stroke-linecap="round" stroke-linejoin="round" stroke-miterlimit="10" d="
		M75.8,60.2c0,0-4.5,15.3,4,19"/>
	<path fill="none" stroke="#2196F3" stroke-width="5" stroke-linejoin="round" stroke-miterlimit="10" d="M64.7,60.2H50.9
		c-3.1,0-5.6-2.5-5.6-5.6v-3.2c0-3.1,2.5-5.6,5.6-5.6h13.8c3.1,0,5.6,2.5,5.6,5.6v3.2C70.3,57.7,67.8,60.2,64.7,60.2z"/>
	<path fill="none" stroke="#2196F3" stroke-width="5" stroke-linejoin="round" stroke-miterlimit="10" d="M101.3,60.2H87.5
		c-3.1,0-5.6-2.5-5.6-5.6v-3.2c0-3.1,2.5-5.6,5.6-5.6h13.8c3.1,0,5.6,2.5,5.6,5.6v3.2C106.9,57.7,104.4,60.2,101.3,60.2z"/>
	
		<path fill="#55CBFF" stroke="#2196F3" stroke-width="5" stroke-linecap="round" stroke-linejoin="round" stroke-miterlimit="10" d="
		M100.7,118.8h20.5v10.8c0,0,0.1,8.3-10.2,8.3s-10.3-8.3-10.3-8.3V118.8z"/>
	
		<line fill="#FFFFFF" stroke="#2196F3" stroke-width="5" stroke-linecap="round" stroke-linejoin="round" stroke-miterlimit="10" x1="106.9" y1="118.8" x2="106.9" y2="109.4"/>
	
		<line fill="#FFFFFF" stroke="#2196F3" stroke-width="5" stroke-linecap="round" stroke-linejoin="round" stroke-miterlimit="10" x1="113.4" y1="118.7" x2="113.4" y2="112.1"/>
</g>
</svg>
