<?xml version="1.0" encoding="utf-8"?>
<!-- Generator: Adobe Illustrator 18.1.1, SVG Export Plug-In . SVG Version: 6.00 Build 0)  -->
<svg version="1.1" id="Layer_1" xmlns="http://www.w3.org/2000/svg" xmlns:xlink="http://www.w3.org/1999/xlink" x="0px" y="0px"
	 viewBox="0 0 145.3 147.3" enable-background="new 0 0 145.3 147.3" xml:space="preserve">
<g>
	
		<path fill="#55CBFF" stroke="#2196F3" stroke-width="5" stroke-linecap="round" stroke-linejoin="round" stroke-miterlimit="10" d="
		M19.5,144v-24.2c0-19.3,15.6-34.9,34.9-34.9h37.7c19.3,0,34.9,15.6,34.9,34.9V144C127,144,45.5,144,19.5,144z"/>
	
		<path fill="#FFFFFF" stroke="#2196F3" stroke-width="5" stroke-linecap="round" stroke-linejoin="round" stroke-miterlimit="10" d="
		M48.3,92.3c0,0,6.3,23.7,23,30.2c17.6-7.7,24.6-26.8,24.6-26.8"/>
	<circle fill="#FFFFFF" stroke="#2196F3" stroke-width="5" stroke-miterlimit="10" cx="74.5" cy="60.7" r="41"/>
	<circle fill="none" stroke="#2196F3" stroke-width="5" stroke-miterlimit="10" cx="56" cy="58.4" r="12.7"/>
	<circle fill="none" stroke="#2196F3" stroke-width="5" stroke-miterlimit="10" cx="92.7" cy="58.4" r="12.7"/>
	<line fill="none" stroke="#2196F3" stroke-width="5" stroke-miterlimit="10" x1="68.6" y1="58.4" x2="80" y2="58.4"/>
	
		<path fill="#FFFFFF" stroke="#2196F3" stroke-width="5" stroke-linecap="round" stroke-linejoin="round" stroke-miterlimit="10" d="
		M90.5,22.9c0,0-17.5-24.6-45.2-6.9c-26.8,17.1-17,42.3-17,42.3S60.7,48.2,90.5,22.9z"/>
	
		<path fill="#FFFFFF" stroke="#2196F3" stroke-width="5" stroke-linecap="round" stroke-linejoin="round" stroke-miterlimit="10" d="
		M90.5,23.4l27.3,24.5C117.8,47.8,116.1,9,90.5,23.4z"/>
	
		<polyline fill="#FFFFFF" stroke="#2196F3" stroke-width="5" stroke-linecap="round" stroke-linejoin="round" stroke-miterlimit="10" points="
		98.3,13 90.5,23.4 90.5,2.7 	"/>
	
		<path fill="#FFFFFF" stroke="#2196F3" stroke-width="5" stroke-linecap="round" stroke-linejoin="round" stroke-miterlimit="10" d="
		M72.3,89.8c0,0,12.1,0.7,18.4-9.7"/>
	
		<path fill="#FFFFFF" stroke="#2196F3" stroke-width="5" stroke-linecap="round" stroke-linejoin="round" stroke-miterlimit="10" d="
		M72.3,71.7c0,0-4.6,3.5,0,6"/>
</g>
</svg>
